<svg xmlns="http://www.w3.org/2000/svg" xmlns:xlink="http://www.w3.org/1999/xlink" width="177" zoomAndPan="magnify" viewBox="0 0 132.75 40.499999" height="54" preserveAspectRatio="xMidYMid meet" version="1.0"><defs><g/><clipPath id="12fd9343aa"><path d="M 0.6875 0 L 41 0 L 41 40.007812 L 0.6875 40.007812 Z M 0.6875 0 " clip-rule="nonzero"/></clipPath><clipPath id="fdd93d7d4e"><path d="M 121 11 L 131.816406 11 L 131.816406 29 L 121 29 Z M 121 11 " clip-rule="nonzero"/></clipPath><clipPath id="27e26227a5"><path d="M 4.6875 7.398438 L 35.570312 7.398438 L 35.570312 32.984375 L 4.6875 32.984375 Z M 4.6875 7.398438 " clip-rule="nonzero"/></clipPath><clipPath id="ac6eb771ea"><path d="M 6.910156 7.398438 L 33.332031 7.398438 C 33.921875 7.398438 34.488281 7.632812 34.90625 8.050781 C 35.320312 8.464844 35.554688 9.03125 35.554688 9.621094 L 35.554688 30.761719 C 35.554688 31.351562 35.320312 31.917969 34.90625 32.335938 C 34.488281 32.75 33.921875 32.984375 33.332031 32.984375 L 6.910156 32.984375 C 6.320312 32.984375 5.753906 32.75 5.335938 32.335938 C 4.921875 31.917969 4.6875 31.351562 4.6875 30.761719 L 4.6875 9.621094 C 4.6875 9.03125 4.921875 8.464844 5.335938 8.050781 C 5.753906 7.632812 6.320312 7.398438 6.910156 7.398438 Z M 6.910156 7.398438 " clip-rule="nonzero"/></clipPath><clipPath id="2b6b62ef3c"><path d="M 46.664062 8.191406 L 131.816406 8.191406 L 131.816406 32.328125 L 46.664062 32.328125 Z M 46.664062 8.191406 " clip-rule="nonzero"/></clipPath><clipPath id="8677de2c42"><path d="M 48.886719 8.191406 L 129.59375 8.191406 C 130.183594 8.191406 130.75 8.425781 131.167969 8.839844 C 131.582031 9.257812 131.816406 9.824219 131.816406 10.414062 L 131.816406 30.105469 C 131.816406 30.695312 131.582031 31.261719 131.167969 31.679688 C 130.75 32.09375 130.183594 32.328125 129.59375 32.328125 L 48.886719 32.328125 C 48.300781 32.328125 47.734375 32.09375 47.316406 31.679688 C 46.898438 31.261719 46.664062 30.695312 46.664062 30.105469 L 46.664062 10.414062 C 46.664062 9.824219 46.898438 9.257812 47.316406 8.839844 C 47.734375 8.425781 48.300781 8.191406 48.886719 8.191406 Z M 48.886719 8.191406 " clip-rule="nonzero"/></clipPath></defs><g clip-path="url(#12fd9343aa)"><path fill="#7444fd" d="M 28.839844 0 L 12.539062 0 C 5.992188 0 0.6875 5.308594 0.6875 11.855469 L 0.6875 28.152344 C 0.6875 34.699219 5.992188 40.007812 12.539062 40.007812 L 28.839844 40.007812 C 35.386719 40.007812 40.691406 34.699219 40.691406 28.152344 L 40.691406 11.855469 C 40.691406 5.308594 35.386719 0 28.839844 0 Z M 28.839844 0 " fill-opacity="1" fill-rule="nonzero"/></g><path fill="#ffffff" d="M 11.796875 11.855469 L 18.761719 11.855469 L 23.566406 16.65625 L 23.566406 21.828125 L 15.730469 14.035156 L 15.707031 28.378906 L 11.796875 28.378906 Z M 11.796875 11.855469 " fill-opacity="1" fill-rule="nonzero"/><path fill="#ffffff" d="M 29.304688 28.378906 L 22.34375 28.378906 L 17.542969 23.578125 L 17.542969 18.402344 L 25.375 26.195312 L 25.398438 11.855469 L 29.304688 11.855469 Z M 29.304688 28.378906 " fill-opacity="1" fill-rule="nonzero"/><path fill="#282c32" d="M 64.074219 11.363281 L 64.074219 28.6875 L 60.910156 28.6875 L 53.371094 17.785156 L 53.246094 17.785156 L 53.246094 28.6875 L 49.582031 28.6875 L 49.582031 11.363281 L 52.796875 11.363281 L 60.277344 22.257812 L 60.429688 22.257812 L 60.429688 11.363281 Z M 64.074219 11.363281 " fill-opacity="1" fill-rule="nonzero"/><path fill="#282c32" d="M 66.558594 28.6875 L 66.558594 15.695312 L 70.164062 15.695312 L 70.164062 28.6875 Z M 68.367188 14.019531 C 67.832031 14.019531 67.371094 13.839844 66.988281 13.484375 C 66.613281 13.125 66.421875 12.691406 66.421875 12.191406 C 66.421875 11.695312 66.613281 11.269531 66.988281 10.914062 C 67.371094 10.550781 67.832031 10.371094 68.367188 10.371094 C 68.90625 10.371094 69.359375 10.550781 69.738281 10.914062 C 70.121094 11.269531 70.316406 11.695312 70.316406 12.191406 C 70.316406 12.691406 70.121094 13.125 69.738281 13.484375 C 69.359375 13.839844 68.90625 14.019531 68.367188 14.019531 Z M 68.367188 14.019531 " fill-opacity="1" fill-rule="nonzero"/><path fill="#282c32" d="M 78.445312 28.941406 C 77.128906 28.941406 75.992188 28.664062 75.035156 28.105469 C 74.082031 27.542969 73.34375 26.757812 72.828125 25.753906 C 72.308594 24.742188 72.046875 23.574219 72.046875 22.242188 C 72.046875 20.898438 72.308594 19.726562 72.828125 18.722656 C 73.34375 17.714844 74.082031 16.929688 75.035156 16.371094 C 75.992188 15.804688 77.128906 15.523438 78.445312 15.523438 C 79.757812 15.523438 80.890625 15.804688 81.847656 16.371094 C 82.804688 16.929688 83.542969 17.714844 84.0625 18.722656 C 84.582031 19.726562 84.839844 20.898438 84.839844 22.242188 C 84.839844 23.574219 84.582031 24.742188 84.0625 25.753906 C 83.542969 26.757812 82.804688 27.542969 81.847656 28.105469 C 80.890625 28.664062 79.757812 28.941406 78.445312 28.941406 Z M 78.460938 26.152344 C 79.058594 26.152344 79.558594 25.980469 79.957031 25.644531 C 80.359375 25.300781 80.660156 24.832031 80.863281 24.238281 C 81.074219 23.648438 81.175781 22.972656 81.175781 22.21875 C 81.175781 21.460938 81.074219 20.785156 80.863281 20.195312 C 80.660156 19.601562 80.359375 19.132812 79.957031 18.789062 C 79.558594 18.445312 79.058594 18.273438 78.460938 18.273438 C 77.859375 18.273438 77.351562 18.445312 76.9375 18.789062 C 76.53125 19.132812 76.226562 19.601562 76.015625 20.195312 C 75.8125 20.785156 75.710938 21.460938 75.710938 22.21875 C 75.710938 22.972656 75.8125 23.648438 76.015625 24.238281 C 76.226562 24.832031 76.53125 25.300781 76.9375 25.644531 C 77.351562 25.980469 77.859375 26.152344 78.460938 26.152344 Z M 78.460938 26.152344 " fill-opacity="1" fill-rule="nonzero"/><path fill="#282c32" d="M 92.75 15.695312 L 92.75 17.386719 L 86.015625 17.386719 L 86.015625 15.695312 Z M 87.976562 12.582031 L 89.972656 12.582031 L 89.972656 24.964844 C 89.972656 25.53125 90.054688 25.953125 90.21875 26.234375 C 90.386719 26.511719 90.601562 26.699219 90.863281 26.792969 C 91.128906 26.882812 91.40625 26.929688 91.699219 26.929688 C 91.917969 26.929688 92.101562 26.917969 92.242188 26.894531 C 92.382812 26.867188 92.496094 26.84375 92.578125 26.828125 L 92.984375 28.621094 C 92.851562 28.671875 92.660156 28.722656 92.417969 28.773438 C 92.175781 28.832031 91.867188 28.859375 91.496094 28.859375 C 90.933594 28.859375 90.378906 28.738281 89.839844 28.496094 C 89.300781 28.253906 88.855469 27.882812 88.5 27.386719 C 88.152344 26.890625 87.976562 26.265625 87.976562 25.507812 Z M 87.976562 12.582031 " fill-opacity="1" fill-rule="nonzero"/><path fill="#282c32" d="M 100.585938 28.960938 C 99.332031 28.960938 98.253906 28.683594 97.34375 28.128906 C 96.441406 27.574219 95.746094 26.792969 95.253906 25.796875 C 94.769531 24.792969 94.527344 23.625 94.527344 22.292969 C 94.527344 20.960938 94.769531 19.789062 95.253906 18.773438 C 95.746094 17.753906 96.429688 16.957031 97.300781 16.386719 C 98.183594 15.8125 99.207031 15.523438 100.382812 15.523438 C 101.058594 15.523438 101.726562 15.636719 102.386719 15.863281 C 103.046875 16.089844 103.648438 16.457031 104.1875 16.960938 C 104.730469 17.464844 105.160156 18.128906 105.484375 18.960938 C 105.804688 19.789062 105.964844 20.808594 105.964844 22.023438 L 105.964844 22.867188 L 95.949219 22.867188 L 95.949219 21.140625 L 103.933594 21.140625 C 103.933594 20.410156 103.789062 19.753906 103.496094 19.179688 C 103.207031 18.605469 102.796875 18.148438 102.261719 17.816406 C 101.730469 17.484375 101.101562 17.316406 100.382812 17.316406 C 99.585938 17.316406 98.898438 17.515625 98.316406 17.910156 C 97.742188 18.300781 97.300781 18.808594 96.988281 19.433594 C 96.679688 20.058594 96.523438 20.730469 96.523438 21.445312 L 96.523438 22.597656 C 96.523438 23.578125 96.691406 24.410156 97.03125 25.09375 C 97.375 25.769531 97.851562 26.285156 98.460938 26.640625 C 99.070312 26.992188 99.777344 27.167969 100.585938 27.167969 C 101.109375 27.167969 101.582031 27.09375 102.007812 26.945312 C 102.433594 26.792969 102.804688 26.570312 103.113281 26.269531 C 103.425781 25.964844 103.664062 25.585938 103.832031 25.136719 L 105.761719 25.675781 C 105.558594 26.332031 105.21875 26.90625 104.738281 27.402344 C 104.257812 27.894531 103.667969 28.277344 102.960938 28.554688 C 102.257812 28.824219 101.464844 28.960938 100.585938 28.960938 Z M 100.585938 28.960938 " fill-opacity="1" fill-rule="nonzero"/><path fill="#282c32" d="M 113.804688 28.960938 C 112.585938 28.960938 111.539062 28.671875 110.660156 28.097656 C 109.777344 27.523438 109.101562 26.730469 108.628906 25.71875 C 108.152344 24.710938 107.917969 23.554688 107.917969 22.257812 C 107.917969 20.9375 108.160156 19.773438 108.644531 18.765625 C 109.136719 17.75 109.816406 16.957031 110.691406 16.386719 C 111.574219 15.8125 112.597656 15.523438 113.773438 15.523438 C 114.6875 15.523438 115.507812 15.695312 116.242188 16.03125 C 116.976562 16.371094 117.578125 16.84375 118.042969 17.453125 C 118.511719 18.0625 118.804688 18.773438 118.917969 19.585938 L 116.921875 19.585938 C 116.765625 18.992188 116.429688 18.46875 115.902344 18.011719 C 115.386719 17.550781 114.6875 17.316406 113.804688 17.316406 C 113.027344 17.316406 112.34375 17.519531 111.757812 17.925781 C 111.175781 18.328125 110.722656 18.894531 110.398438 19.628906 C 110.074219 20.355469 109.914062 21.210938 109.914062 22.191406 C 109.914062 23.195312 110.074219 24.070312 110.386719 24.8125 C 110.710938 25.558594 111.160156 26.136719 111.742188 26.546875 C 112.328125 26.960938 113.015625 27.167969 113.804688 27.167969 C 114.324219 27.167969 114.796875 27.074219 115.21875 26.894531 C 115.640625 26.714844 116 26.457031 116.292969 26.117188 C 116.585938 25.777344 116.796875 25.371094 116.921875 24.898438 L 118.917969 24.898438 C 118.804688 25.664062 118.523438 26.355469 118.078125 26.972656 C 117.636719 27.582031 117.054688 28.066406 116.328125 28.425781 C 115.605469 28.78125 114.765625 28.960938 113.804688 28.960938 Z M 113.804688 28.960938 " fill-opacity="1" fill-rule="nonzero"/><g clip-path="url(#fdd93d7d4e)"><path fill="#282c32" d="M 123.355469 20.871094 L 123.355469 28.6875 L 121.359375 28.6875 L 121.359375 11.363281 L 123.355469 11.363281 L 123.355469 17.722656 L 123.523438 17.722656 C 123.828125 17.054688 124.285156 16.519531 124.894531 16.125 C 125.511719 15.726562 126.328125 15.523438 127.347656 15.523438 C 128.234375 15.523438 129.011719 15.703125 129.675781 16.058594 C 130.339844 16.40625 130.855469 16.945312 131.222656 17.671875 C 131.597656 18.394531 131.78125 19.316406 131.78125 20.429688 L 131.78125 28.6875 L 129.785156 28.6875 L 129.785156 20.566406 C 129.785156 19.535156 129.515625 18.738281 128.980469 18.171875 C 128.453125 17.601562 127.714844 17.316406 126.773438 17.316406 C 126.121094 17.316406 125.53125 17.457031 125.015625 17.734375 C 124.5 18.007812 124.09375 18.414062 123.796875 18.941406 C 123.503906 19.472656 123.355469 20.117188 123.355469 20.871094 Z M 123.355469 20.871094 " fill-opacity="1" fill-rule="nonzero"/></g><g clip-path="url(#27e26227a5)"><g clip-path="url(#ac6eb771ea)"><path fill="#7443fd" d="M 4.6875 7.398438 L 35.570312 7.398438 L 35.570312 32.984375 L 4.6875 32.984375 Z M 4.6875 7.398438 " fill-opacity="1" fill-rule="nonzero"/></g></g><g clip-path="url(#2b6b62ef3c)"><g clip-path="url(#8677de2c42)"><path fill="#ffffff" d="M 46.664062 8.191406 L 131.816406 8.191406 L 131.816406 32.328125 L 46.664062 32.328125 Z M 46.664062 8.191406 " fill-opacity="1" fill-rule="nonzero"/></g></g><g fill="#f6ba02" fill-opacity="0.4"><g transform="translate(9.895939, 33.492722)"><g><path d="M 1.859375 -9.6875 C 1.859375 -7.03125 2.34375 -5.34375 3.5625 -3.703125 C 5.390625 -1.265625 8.28125 0.0625 11.8125 0.0625 C 15.28125 0.0625 18.046875 -1.265625 19.890625 -3.84375 C 21.125 -5.53125 21.6875 -7.34375 21.6875 -9.828125 L 21.6875 -19.828125 C 21.6875 -20.984375 21.609375 -21.265625 21.21875 -21.859375 C 20.625 -22.734375 19.65625 -23.296875 18.609375 -23.296875 C 17.484375 -23.296875 16.46875 -22.65625 15.953125 -21.71875 C 15.625 -21.125 15.5625 -20.765625 15.5625 -19.515625 L 15.5625 -9.828125 C 15.5625 -8.640625 15.484375 -8.1875 15.109375 -7.484375 C 14.40625 -6.21875 13.1875 -5.484375 11.75 -5.484375 C 10.421875 -5.484375 9.265625 -6.125 8.609375 -7.28125 C 8.109375 -8.078125 8.015625 -8.53125 8.015625 -9.96875 L 8.015625 -19.828125 C 8.015625 -20.875 7.9375 -21.296875 7.546875 -21.890625 C 7 -22.796875 6.015625 -23.359375 4.9375 -23.359375 C 3.875 -23.359375 2.96875 -22.828125 2.375 -21.953125 C 1.953125 -21.328125 1.859375 -20.90625 1.859375 -19.65625 Z M 21.296875 -9.828125 C 21.296875 -7.6875 20.90625 -6.15625 19.96875 -4.65625 C 18.25 -1.8125 15.421875 -0.3125 11.8125 -0.3125 C 8.75 -0.3125 6.15625 -1.359375 4.40625 -3.328125 C 2.875 -5 2.234375 -6.859375 2.234375 -9.6875 L 2.234375 -19.65625 C 2.234375 -20.84375 2.34375 -21.15625 2.734375 -21.75 C 3.21875 -22.515625 4.015625 -22.96875 4.9375 -22.96875 C 5.875 -22.96875 6.75 -22.484375 7.234375 -21.6875 C 7.546875 -21.15625 7.625 -20.8125 7.625 -19.828125 L 7.625 -9.96875 C 7.625 -8.5 7.765625 -7.9375 8.25 -7.0625 C 9.015625 -5.8125 10.28125 -5.109375 11.75 -5.109375 C 13.328125 -5.109375 14.6875 -5.90625 15.421875 -7.28125 C 15.84375 -8.046875 15.953125 -8.5625 15.953125 -9.828125 L 15.953125 -19.515625 C 15.953125 -20.734375 15.984375 -20.984375 16.296875 -21.546875 C 16.71875 -22.34375 17.625 -22.90625 18.609375 -22.90625 C 19.515625 -22.90625 20.390625 -22.421875 20.875 -21.640625 C 21.21875 -21.125 21.296875 -20.875 21.296875 -19.828125 Z M 7.09375 -19.796875 C 7.09375 -20.625 7.0625 -20.875 6.921875 -20.875 C 6.8125 -20.875 6.78125 -20.8125 6.78125 -20.671875 C 6.78125 -20.625 6.78125 -20.625 6.78125 -20.59375 L 6.859375 -20.359375 C 6.859375 -20.28125 6.859375 -20.140625 6.859375 -19.96875 L 6.859375 -10.53125 C 6.859375 -8.46875 6.921875 -8.109375 7.375 -7.140625 C 7.625 -6.640625 8.015625 -6.078125 8.140625 -6.078125 C 8.21875 -6.078125 8.25 -6.125 8.25 -6.15625 C 8.25 -6.21875 8.21875 -6.265625 8.1875 -6.328125 C 7.40625 -7.28125 7.09375 -8.328125 7.09375 -9.9375 C 7.09375 -10.3125 7.09375 -10.703125 7.09375 -11.15625 C 7.09375 -11.546875 7.09375 -11.8125 7.09375 -11.953125 Z M 18.703125 -5.765625 C 18.703125 -5.59375 18.8125 -5.453125 18.921875 -5.453125 C 19.203125 -5.453125 19.515625 -6.015625 19.515625 -6.46875 C 19.515625 -6.640625 19.4375 -6.75 19.34375 -6.75 C 19.203125 -6.75 19.0625 -6.640625 18.953125 -6.46875 C 18.78125 -6.265625 18.703125 -5.984375 18.703125 -5.765625 Z M 20.765625 -18.328125 C 20.765625 -18.75 20.765625 -19.234375 20.8125 -19.75 C 20.8125 -19.796875 20.8125 -19.796875 20.8125 -19.796875 C 20.8125 -19.828125 20.8125 -19.828125 20.8125 -19.828125 L 20.765625 -20.140625 L 20.734375 -20.5625 C 20.734375 -20.84375 20.625 -21.046875 20.53125 -21.046875 C 20.453125 -21.046875 20.390625 -21.015625 20.390625 -20.953125 C 20.390625 -20.90625 20.421875 -20.8125 20.484375 -20.625 C 20.53125 -20.5625 20.5625 -20.359375 20.5625 -20.078125 L 20.5625 -9.796875 C 20.5625 -7.28125 19.625 -4.71875 18.671875 -4.71875 C 18.390625 -4.71875 18.15625 -4.9375 18.15625 -5.203125 C 18.15625 -5.390625 18.25 -5.765625 18.421875 -6.15625 C 18.5 -6.296875 18.53125 -6.46875 18.53125 -6.578125 C 18.53125 -6.671875 18.5 -6.78125 18.421875 -6.859375 C 18.28125 -7.0625 18.28125 -7.0625 18.28125 -7.140625 C 18.28125 -7.171875 18.28125 -7.203125 18.28125 -7.234375 L 18.421875 -7.765625 C 18.46875 -7.90625 18.5625 -8.46875 18.640625 -8.921875 C 18.703125 -9.515625 18.75 -9.96875 18.75 -10.90625 L 18.75 -19.125 C 18.75 -19.796875 18.703125 -19.890625 18.28125 -20.078125 C 17.34375 -20.453125 17.171875 -20.625 17.171875 -21.125 C 17.171875 -21.40625 17.3125 -21.609375 17.484375 -21.609375 C 17.546875 -21.609375 17.625 -21.546875 17.625 -21.46875 C 17.625 -21.46875 17.625 -21.46875 17.625 -21.4375 C 17.625 -21.359375 17.59375 -21.265625 17.59375 -21.15625 L 17.59375 -21.125 C 17.625 -20.875 17.90625 -20.59375 18.1875 -20.59375 C 18.328125 -20.59375 18.46875 -20.703125 18.46875 -20.875 C 18.46875 -20.953125 18.390625 -21.09375 18.328125 -21.125 L 18.046875 -21.296875 C 17.9375 -21.359375 17.875 -21.5 17.875 -21.609375 C 17.875 -21.921875 18.1875 -22.140625 18.609375 -22.140625 C 18.84375 -22.140625 19.296875 -22.03125 19.484375 -21.921875 L 19.96875 -21.609375 L 20 -21.609375 C 20.078125 -21.609375 20.109375 -21.640625 20.109375 -21.71875 C 20.109375 -21.78125 20.03125 -21.859375 19.796875 -22.03125 C 19.40625 -22.28125 19.09375 -22.375 18.640625 -22.375 C 17.421875 -22.375 16.4375 -21.46875 16.4375 -20.359375 L 16.4375 -10.140625 C 16.4375 -8.046875 16.15625 -7.203125 15.21875 -6.125 C 14.265625 -5.109375 13.078125 -4.578125 11.640625 -4.578125 C 10.9375 -4.578125 10.109375 -4.796875 9.65625 -5.109375 C 9.46875 -5.203125 9.40625 -5.25 9.375 -5.25 C 9.296875 -5.25 9.265625 -5.171875 9.265625 -5.140625 C 9.265625 -5.078125 9.375 -4.96875 9.609375 -4.859375 L 10.078125 -4.6875 C 10.203125 -4.609375 10.390625 -4.546875 10.625 -4.515625 C 10.9375 -4.4375 11.15625 -4.375 11.265625 -4.375 L 12.515625 -4.375 C 12.96875 -4.34375 13.328125 -4.15625 13.328125 -3.875 C 13.328125 -3.671875 12.96875 -3.390625 12.625 -3.28125 L 11.640625 -3.078125 C 11.578125 -3.046875 11.5 -2.96875 11.5 -2.9375 C 11.5 -2.765625 11.890625 -2.625 12.375 -2.625 C 12.484375 -2.625 12.59375 -2.625 12.6875 -2.65625 C 13.046875 -2.65625 13.328125 -2.6875 13.390625 -2.6875 C 13.5 -2.6875 13.5625 -2.65625 13.5625 -2.59375 C 13.5625 -2.375 12.734375 -2.203125 11.75 -2.203125 C 10.3125 -2.203125 9.65625 -2.375 7.9375 -3.25 C 7.59375 -3.421875 7.375 -3.640625 7.375 -3.8125 C 7.375 -3.84375 7.453125 -3.921875 7.484375 -3.921875 C 7.625 -3.921875 8.015625 -3.734375 8.21875 -3.5625 C 8.28125 -3.5 8.390625 -3.46875 8.5 -3.46875 C 8.53125 -3.46875 8.5625 -3.5 8.5625 -3.53125 C 8.5625 -3.5625 8.421875 -3.703125 8.25 -3.8125 C 7.28125 -4.40625 6.859375 -4.828125 6.21875 -5.765625 C 5.28125 -7.09375 5.03125 -8.109375 5.03125 -10.453125 L 5.03125 -19.546875 C 5.03125 -19.796875 4.9375 -20 4.796875 -20.078125 L 4.09375 -20.359375 C 3.734375 -20.484375 3.5 -20.84375 3.5 -21.15625 C 3.5 -21.4375 3.640625 -21.6875 3.78125 -21.6875 C 3.84375 -21.6875 3.921875 -21.609375 3.921875 -21.5 L 3.953125 -21.1875 C 3.953125 -20.953125 4.234375 -20.671875 4.46875 -20.671875 C 4.609375 -20.671875 4.71875 -20.765625 4.71875 -20.875 C 4.71875 -20.953125 4.65625 -21.046875 4.515625 -21.15625 L 4.4375 -21.21875 C 4.296875 -21.328125 4.203125 -21.546875 4.203125 -21.71875 C 4.203125 -22 4.46875 -22.171875 4.890625 -22.171875 C 5.28125 -22.171875 5.875 -21.953125 6.125 -21.75 L 6.5 -21.40625 C 6.5 -21.40625 6.546875 -21.40625 6.578125 -21.40625 C 6.640625 -21.40625 6.671875 -21.4375 6.671875 -21.5 C 6.671875 -21.609375 6.5 -21.828125 6.265625 -22 C 5.84375 -22.3125 5.453125 -22.453125 4.96875 -22.453125 C 3.671875 -22.453125 2.765625 -21.5 2.765625 -20.140625 L 2.765625 -11.609375 C 2.765625 -10.484375 2.765625 -9.71875 2.765625 -9.34375 C 2.796875 -8.046875 3.078125 -6.640625 3.53125 -5.625 C 3.8125 -4.9375 4.375 -4.15625 5.140625 -3.390625 C 6.71875 -1.8125 9.34375 -0.84375 11.921875 -0.84375 C 14.75 -0.84375 17.421875 -2.140625 19.09375 -4.34375 C 20.359375 -5.984375 20.765625 -7.484375 20.765625 -10.109375 Z M 4.796875 -9.296875 C 4.796875 -8.1875 5.109375 -6.953125 5.671875 -5.9375 C 6.125 -5.03125 6.21875 -4.796875 6.21875 -4.46875 C 6.21875 -4.125 6.015625 -3.875 5.703125 -3.875 C 4.71875 -3.875 3.53125 -5.625 3.53125 -7.0625 C 3.53125 -7.484375 3.703125 -7.765625 3.984375 -7.765625 C 4.203125 -7.765625 4.40625 -7.546875 4.546875 -7.28125 L 4.71875 -6.859375 C 4.75 -6.75 4.796875 -6.640625 4.796875 -6.578125 L 4.796875 -6.546875 C 4.75 -6.5 4.71875 -6.46875 4.71875 -6.46875 C 4.6875 -6.46875 4.578125 -6.546875 4.4375 -6.671875 C 4.375 -6.71875 4.34375 -6.71875 4.296875 -6.71875 C 4.15625 -6.71875 4.0625 -6.609375 4.0625 -6.40625 C 4.0625 -6.046875 4.203125 -5.671875 4.4375 -5.390625 C 4.65625 -5.140625 4.9375 -4.9375 5.109375 -4.9375 C 5.25 -4.9375 5.390625 -5.109375 5.390625 -5.25 C 5.390625 -5.484375 5.28125 -5.875 5.109375 -6.265625 C 4.6875 -7.09375 4.4375 -8.1875 4.4375 -9.09375 L 4.4375 -19.484375 C 4.4375 -19.515625 4.4375 -19.546875 4.46875 -19.625 C 4.515625 -19.65625 4.515625 -19.6875 4.546875 -19.71875 C 4.578125 -19.71875 4.578125 -19.75 4.609375 -19.75 C 4.75 -19.75 4.796875 -19.546875 4.796875 -18.953125 Z M 18.46875 -9.515625 C 18.46875 -9.46875 18.46875 -9.34375 18.46875 -9.15625 L 18.390625 -8.609375 C 18.1875 -6.21875 16.015625 -3.78125 13.53125 -3.078125 L 13.28125 -3 C 13.078125 -2.9375 12.90625 -2.90625 12.796875 -2.90625 C 12.734375 -2.90625 12.65625 -2.9375 12.625 -3 C 12.625 -3.078125 12.734375 -3.140625 12.90625 -3.1875 C 13.8125 -3.390625 14.578125 -3.921875 14.578125 -4.34375 C 14.578125 -4.546875 14.40625 -4.65625 14.125 -4.65625 L 13.953125 -4.65625 C 13.875 -4.65625 13.84375 -4.6875 13.84375 -4.71875 C 13.84375 -4.796875 13.921875 -4.859375 14.125 -4.96875 L 14.375 -5.140625 C 14.6875 -5.28125 15.03125 -5.390625 15.3125 -5.390625 C 15.59375 -5.390625 15.765625 -5.203125 15.765625 -4.9375 C 15.765625 -4.75 15.8125 -4.71875 15.875 -4.71875 C 15.90625 -4.71875 15.953125 -4.75 16.046875 -4.828125 L 16.5 -5.3125 C 17.453125 -6.296875 18.109375 -8.109375 18.109375 -9.609375 L 18.109375 -19.34375 C 18.109375 -19.484375 18.1875 -19.625 18.328125 -19.625 C 18.390625 -19.625 18.46875 -19.515625 18.46875 -19.40625 Z M 14.6875 -3.109375 C 14.6875 -3.1875 14.75 -3.28125 14.859375 -3.359375 L 15.671875 -3.8125 C 15.84375 -3.953125 16.046875 -4.09375 16.21875 -4.234375 L 16.4375 -4.4375 L 16.609375 -4.578125 C 16.71875 -4.65625 16.890625 -4.890625 17.171875 -5.203125 C 17.3125 -5.390625 17.375 -5.53125 17.453125 -5.59375 C 17.734375 -6.078125 17.875 -6.21875 18.015625 -6.21875 C 18.078125 -6.21875 18.15625 -6.15625 18.15625 -6.078125 C 18.15625 -5.984375 18.078125 -5.765625 17.9375 -5.53125 C 17.875 -5.28125 17.796875 -4.96875 17.796875 -4.71875 C 17.796875 -4.46875 17.96875 -4.203125 18.1875 -4.15625 L 18.390625 -4.125 C 18.46875 -4.125 18.5 -4.09375 18.53125 -4.015625 C 18.53125 -3.921875 18.359375 -3.734375 18.109375 -3.609375 C 17.9375 -3.53125 17.828125 -3.5 17.6875 -3.5 C 17.421875 -3.5 17.203125 -3.671875 17.203125 -3.984375 C 17.203125 -4.125 17.234375 -4.203125 17.28125 -4.265625 C 17.421875 -4.546875 17.515625 -4.75 17.515625 -4.75 C 17.515625 -4.796875 17.453125 -4.828125 17.421875 -4.828125 C 17.375 -4.828125 17.3125 -4.796875 17.171875 -4.6875 L 17.140625 -4.609375 L 16.6875 -4.15625 C 16.578125 -4.0625 16.078125 -3.703125 15.703125 -3.421875 C 15.3125 -3.140625 14.96875 -3 14.828125 -3 C 14.75 -3 14.6875 -3.046875 14.6875 -3.109375 Z M 14.6875 -3.109375 "/></g></g></g><g fill="#f6ba02" fill-opacity="1"><g transform="translate(8.350293, 31.947077)"><g><path d="M 1.859375 -9.6875 C 1.859375 -7.03125 2.34375 -5.34375 3.5625 -3.703125 C 5.390625 -1.265625 8.28125 0.0625 11.8125 0.0625 C 15.28125 0.0625 18.046875 -1.265625 19.890625 -3.84375 C 21.125 -5.53125 21.6875 -7.34375 21.6875 -9.828125 L 21.6875 -19.828125 C 21.6875 -20.984375 21.609375 -21.265625 21.21875 -21.859375 C 20.625 -22.734375 19.65625 -23.296875 18.609375 -23.296875 C 17.484375 -23.296875 16.46875 -22.65625 15.953125 -21.71875 C 15.625 -21.125 15.5625 -20.765625 15.5625 -19.515625 L 15.5625 -9.828125 C 15.5625 -8.640625 15.484375 -8.1875 15.109375 -7.484375 C 14.40625 -6.21875 13.1875 -5.484375 11.75 -5.484375 C 10.421875 -5.484375 9.265625 -6.125 8.609375 -7.28125 C 8.109375 -8.078125 8.015625 -8.53125 8.015625 -9.96875 L 8.015625 -19.828125 C 8.015625 -20.875 7.9375 -21.296875 7.546875 -21.890625 C 7 -22.796875 6.015625 -23.359375 4.9375 -23.359375 C 3.875 -23.359375 2.96875 -22.828125 2.375 -21.953125 C 1.953125 -21.328125 1.859375 -20.90625 1.859375 -19.65625 Z M 21.296875 -9.828125 C 21.296875 -7.6875 20.90625 -6.15625 19.96875 -4.65625 C 18.25 -1.8125 15.421875 -0.3125 11.8125 -0.3125 C 8.75 -0.3125 6.15625 -1.359375 4.40625 -3.328125 C 2.875 -5 2.234375 -6.859375 2.234375 -9.6875 L 2.234375 -19.65625 C 2.234375 -20.84375 2.34375 -21.15625 2.734375 -21.75 C 3.21875 -22.515625 4.015625 -22.96875 4.9375 -22.96875 C 5.875 -22.96875 6.75 -22.484375 7.234375 -21.6875 C 7.546875 -21.15625 7.625 -20.8125 7.625 -19.828125 L 7.625 -9.96875 C 7.625 -8.5 7.765625 -7.9375 8.25 -7.0625 C 9.015625 -5.8125 10.28125 -5.109375 11.75 -5.109375 C 13.328125 -5.109375 14.6875 -5.90625 15.421875 -7.28125 C 15.84375 -8.046875 15.953125 -8.5625 15.953125 -9.828125 L 15.953125 -19.515625 C 15.953125 -20.734375 15.984375 -20.984375 16.296875 -21.546875 C 16.71875 -22.34375 17.625 -22.90625 18.609375 -22.90625 C 19.515625 -22.90625 20.390625 -22.421875 20.875 -21.640625 C 21.21875 -21.125 21.296875 -20.875 21.296875 -19.828125 Z M 7.09375 -19.796875 C 7.09375 -20.625 7.0625 -20.875 6.921875 -20.875 C 6.8125 -20.875 6.78125 -20.8125 6.78125 -20.671875 C 6.78125 -20.625 6.78125 -20.625 6.78125 -20.59375 L 6.859375 -20.359375 C 6.859375 -20.28125 6.859375 -20.140625 6.859375 -19.96875 L 6.859375 -10.53125 C 6.859375 -8.46875 6.921875 -8.109375 7.375 -7.140625 C 7.625 -6.640625 8.015625 -6.078125 8.140625 -6.078125 C 8.21875 -6.078125 8.25 -6.125 8.25 -6.15625 C 8.25 -6.21875 8.21875 -6.265625 8.1875 -6.328125 C 7.40625 -7.28125 7.09375 -8.328125 7.09375 -9.9375 C 7.09375 -10.3125 7.09375 -10.703125 7.09375 -11.15625 C 7.09375 -11.546875 7.09375 -11.8125 7.09375 -11.953125 Z M 18.703125 -5.765625 C 18.703125 -5.59375 18.8125 -5.453125 18.921875 -5.453125 C 19.203125 -5.453125 19.515625 -6.015625 19.515625 -6.46875 C 19.515625 -6.640625 19.4375 -6.75 19.34375 -6.75 C 19.203125 -6.75 19.0625 -6.640625 18.953125 -6.46875 C 18.78125 -6.265625 18.703125 -5.984375 18.703125 -5.765625 Z M 20.765625 -18.328125 C 20.765625 -18.75 20.765625 -19.234375 20.8125 -19.75 C 20.8125 -19.796875 20.8125 -19.796875 20.8125 -19.796875 C 20.8125 -19.828125 20.8125 -19.828125 20.8125 -19.828125 L 20.765625 -20.140625 L 20.734375 -20.5625 C 20.734375 -20.84375 20.625 -21.046875 20.53125 -21.046875 C 20.453125 -21.046875 20.390625 -21.015625 20.390625 -20.953125 C 20.390625 -20.90625 20.421875 -20.8125 20.484375 -20.625 C 20.53125 -20.5625 20.5625 -20.359375 20.5625 -20.078125 L 20.5625 -9.796875 C 20.5625 -7.28125 19.625 -4.71875 18.671875 -4.71875 C 18.390625 -4.71875 18.15625 -4.9375 18.15625 -5.203125 C 18.15625 -5.390625 18.25 -5.765625 18.421875 -6.15625 C 18.5 -6.296875 18.53125 -6.46875 18.53125 -6.578125 C 18.53125 -6.671875 18.5 -6.78125 18.421875 -6.859375 C 18.28125 -7.0625 18.28125 -7.0625 18.28125 -7.140625 C 18.28125 -7.171875 18.28125 -7.203125 18.28125 -7.234375 L 18.421875 -7.765625 C 18.46875 -7.90625 18.5625 -8.46875 18.640625 -8.921875 C 18.703125 -9.515625 18.75 -9.96875 18.75 -10.90625 L 18.75 -19.125 C 18.75 -19.796875 18.703125 -19.890625 18.28125 -20.078125 C 17.34375 -20.453125 17.171875 -20.625 17.171875 -21.125 C 17.171875 -21.40625 17.3125 -21.609375 17.484375 -21.609375 C 17.546875 -21.609375 17.625 -21.546875 17.625 -21.46875 C 17.625 -21.46875 17.625 -21.46875 17.625 -21.4375 C 17.625 -21.359375 17.59375 -21.265625 17.59375 -21.15625 L 17.59375 -21.125 C 17.625 -20.875 17.90625 -20.59375 18.1875 -20.59375 C 18.328125 -20.59375 18.46875 -20.703125 18.46875 -20.875 C 18.46875 -20.953125 18.390625 -21.09375 18.328125 -21.125 L 18.046875 -21.296875 C 17.9375 -21.359375 17.875 -21.5 17.875 -21.609375 C 17.875 -21.921875 18.1875 -22.140625 18.609375 -22.140625 C 18.84375 -22.140625 19.296875 -22.03125 19.484375 -21.921875 L 19.96875 -21.609375 L 20 -21.609375 C 20.078125 -21.609375 20.109375 -21.640625 20.109375 -21.71875 C 20.109375 -21.78125 20.03125 -21.859375 19.796875 -22.03125 C 19.40625 -22.28125 19.09375 -22.375 18.640625 -22.375 C 17.421875 -22.375 16.4375 -21.46875 16.4375 -20.359375 L 16.4375 -10.140625 C 16.4375 -8.046875 16.15625 -7.203125 15.21875 -6.125 C 14.265625 -5.109375 13.078125 -4.578125 11.640625 -4.578125 C 10.9375 -4.578125 10.109375 -4.796875 9.65625 -5.109375 C 9.46875 -5.203125 9.40625 -5.25 9.375 -5.25 C 9.296875 -5.25 9.265625 -5.171875 9.265625 -5.140625 C 9.265625 -5.078125 9.375 -4.96875 9.609375 -4.859375 L 10.078125 -4.6875 C 10.203125 -4.609375 10.390625 -4.546875 10.625 -4.515625 C 10.9375 -4.4375 11.15625 -4.375 11.265625 -4.375 L 12.515625 -4.375 C 12.96875 -4.34375 13.328125 -4.15625 13.328125 -3.875 C 13.328125 -3.671875 12.96875 -3.390625 12.625 -3.28125 L 11.640625 -3.078125 C 11.578125 -3.046875 11.5 -2.96875 11.5 -2.9375 C 11.5 -2.765625 11.890625 -2.625 12.375 -2.625 C 12.484375 -2.625 12.59375 -2.625 12.6875 -2.65625 C 13.046875 -2.65625 13.328125 -2.6875 13.390625 -2.6875 C 13.5 -2.6875 13.5625 -2.65625 13.5625 -2.59375 C 13.5625 -2.375 12.734375 -2.203125 11.75 -2.203125 C 10.3125 -2.203125 9.65625 -2.375 7.9375 -3.25 C 7.59375 -3.421875 7.375 -3.640625 7.375 -3.8125 C 7.375 -3.84375 7.453125 -3.921875 7.484375 -3.921875 C 7.625 -3.921875 8.015625 -3.734375 8.21875 -3.5625 C 8.28125 -3.5 8.390625 -3.46875 8.5 -3.46875 C 8.53125 -3.46875 8.5625 -3.5 8.5625 -3.53125 C 8.5625 -3.5625 8.421875 -3.703125 8.25 -3.8125 C 7.28125 -4.40625 6.859375 -4.828125 6.21875 -5.765625 C 5.28125 -7.09375 5.03125 -8.109375 5.03125 -10.453125 L 5.03125 -19.546875 C 5.03125 -19.796875 4.9375 -20 4.796875 -20.078125 L 4.09375 -20.359375 C 3.734375 -20.484375 3.5 -20.84375 3.5 -21.15625 C 3.5 -21.4375 3.640625 -21.6875 3.78125 -21.6875 C 3.84375 -21.6875 3.921875 -21.609375 3.921875 -21.5 L 3.953125 -21.1875 C 3.953125 -20.953125 4.234375 -20.671875 4.46875 -20.671875 C 4.609375 -20.671875 4.71875 -20.765625 4.71875 -20.875 C 4.71875 -20.953125 4.65625 -21.046875 4.515625 -21.15625 L 4.4375 -21.21875 C 4.296875 -21.328125 4.203125 -21.546875 4.203125 -21.71875 C 4.203125 -22 4.46875 -22.171875 4.890625 -22.171875 C 5.28125 -22.171875 5.875 -21.953125 6.125 -21.75 L 6.5 -21.40625 C 6.5 -21.40625 6.546875 -21.40625 6.578125 -21.40625 C 6.640625 -21.40625 6.671875 -21.4375 6.671875 -21.5 C 6.671875 -21.609375 6.5 -21.828125 6.265625 -22 C 5.84375 -22.3125 5.453125 -22.453125 4.96875 -22.453125 C 3.671875 -22.453125 2.765625 -21.5 2.765625 -20.140625 L 2.765625 -11.609375 C 2.765625 -10.484375 2.765625 -9.71875 2.765625 -9.34375 C 2.796875 -8.046875 3.078125 -6.640625 3.53125 -5.625 C 3.8125 -4.9375 4.375 -4.15625 5.140625 -3.390625 C 6.71875 -1.8125 9.34375 -0.84375 11.921875 -0.84375 C 14.75 -0.84375 17.421875 -2.140625 19.09375 -4.34375 C 20.359375 -5.984375 20.765625 -7.484375 20.765625 -10.109375 Z M 4.796875 -9.296875 C 4.796875 -8.1875 5.109375 -6.953125 5.671875 -5.9375 C 6.125 -5.03125 6.21875 -4.796875 6.21875 -4.46875 C 6.21875 -4.125 6.015625 -3.875 5.703125 -3.875 C 4.71875 -3.875 3.53125 -5.625 3.53125 -7.0625 C 3.53125 -7.484375 3.703125 -7.765625 3.984375 -7.765625 C 4.203125 -7.765625 4.40625 -7.546875 4.546875 -7.28125 L 4.71875 -6.859375 C 4.75 -6.75 4.796875 -6.640625 4.796875 -6.578125 L 4.796875 -6.546875 C 4.75 -6.5 4.71875 -6.46875 4.71875 -6.46875 C 4.6875 -6.46875 4.578125 -6.546875 4.4375 -6.671875 C 4.375 -6.71875 4.34375 -6.71875 4.296875 -6.71875 C 4.15625 -6.71875 4.0625 -6.609375 4.0625 -6.40625 C 4.0625 -6.046875 4.203125 -5.671875 4.4375 -5.390625 C 4.65625 -5.140625 4.9375 -4.9375 5.109375 -4.9375 C 5.25 -4.9375 5.390625 -5.109375 5.390625 -5.25 C 5.390625 -5.484375 5.28125 -5.875 5.109375 -6.265625 C 4.6875 -7.09375 4.4375 -8.1875 4.4375 -9.09375 L 4.4375 -19.484375 C 4.4375 -19.515625 4.4375 -19.546875 4.46875 -19.625 C 4.515625 -19.65625 4.515625 -19.6875 4.546875 -19.71875 C 4.578125 -19.71875 4.578125 -19.75 4.609375 -19.75 C 4.75 -19.75 4.796875 -19.546875 4.796875 -18.953125 Z M 18.46875 -9.515625 C 18.46875 -9.46875 18.46875 -9.34375 18.46875 -9.15625 L 18.390625 -8.609375 C 18.1875 -6.21875 16.015625 -3.78125 13.53125 -3.078125 L 13.28125 -3 C 13.078125 -2.9375 12.90625 -2.90625 12.796875 -2.90625 C 12.734375 -2.90625 12.65625 -2.9375 12.625 -3 C 12.625 -3.078125 12.734375 -3.140625 12.90625 -3.1875 C 13.8125 -3.390625 14.578125 -3.921875 14.578125 -4.34375 C 14.578125 -4.546875 14.40625 -4.65625 14.125 -4.65625 L 13.953125 -4.65625 C 13.875 -4.65625 13.84375 -4.6875 13.84375 -4.71875 C 13.84375 -4.796875 13.921875 -4.859375 14.125 -4.96875 L 14.375 -5.140625 C 14.6875 -5.28125 15.03125 -5.390625 15.3125 -5.390625 C 15.59375 -5.390625 15.765625 -5.203125 15.765625 -4.9375 C 15.765625 -4.75 15.8125 -4.71875 15.875 -4.71875 C 15.90625 -4.71875 15.953125 -4.75 16.046875 -4.828125 L 16.5 -5.3125 C 17.453125 -6.296875 18.109375 -8.109375 18.109375 -9.609375 L 18.109375 -19.34375 C 18.109375 -19.484375 18.1875 -19.625 18.328125 -19.625 C 18.390625 -19.625 18.46875 -19.515625 18.46875 -19.40625 Z M 14.6875 -3.109375 C 14.6875 -3.1875 14.75 -3.28125 14.859375 -3.359375 L 15.671875 -3.8125 C 15.84375 -3.953125 16.046875 -4.09375 16.21875 -4.234375 L 16.4375 -4.4375 L 16.609375 -4.578125 C 16.71875 -4.65625 16.890625 -4.890625 17.171875 -5.203125 C 17.3125 -5.390625 17.375 -5.53125 17.453125 -5.59375 C 17.734375 -6.078125 17.875 -6.21875 18.015625 -6.21875 C 18.078125 -6.21875 18.15625 -6.15625 18.15625 -6.078125 C 18.15625 -5.984375 18.078125 -5.765625 17.9375 -5.53125 C 17.875 -5.28125 17.796875 -4.96875 17.796875 -4.71875 C 17.796875 -4.46875 17.96875 -4.203125 18.1875 -4.15625 L 18.390625 -4.125 C 18.46875 -4.125 18.5 -4.09375 18.53125 -4.015625 C 18.53125 -3.921875 18.359375 -3.734375 18.109375 -3.609375 C 17.9375 -3.53125 17.828125 -3.5 17.6875 -3.5 C 17.421875 -3.5 17.203125 -3.671875 17.203125 -3.984375 C 17.203125 -4.125 17.234375 -4.203125 17.28125 -4.265625 C 17.421875 -4.546875 17.515625 -4.75 17.515625 -4.75 C 17.515625 -4.796875 17.453125 -4.828125 17.421875 -4.828125 C 17.375 -4.828125 17.3125 -4.796875 17.171875 -4.6875 L 17.140625 -4.609375 L 16.6875 -4.15625 C 16.578125 -4.0625 16.078125 -3.703125 15.703125 -3.421875 C 15.3125 -3.140625 14.96875 -3 14.828125 -3 C 14.75 -3 14.6875 -3.046875 14.6875 -3.109375 Z M 14.6875 -3.109375 "/></g></g></g><g fill="#000000" fill-opacity="1"><g transform="translate(48.30218, 27.818389)"><g><path d="M 15.921875 -14 C 15.941406 -13.882812 15.921875 -13.796875 15.859375 -13.734375 C 15.796875 -13.671875 15.734375 -13.609375 15.671875 -13.546875 C 15.679688 -13.554688 15.707031 -13.5625 15.75 -13.5625 C 15.757812 -13.5625 15.71875 -13.476562 15.625 -13.3125 C 15.53125 -13.15625 15.425781 -13 15.3125 -12.84375 C 15.195312 -12.6875 15.125 -12.613281 15.09375 -12.625 C 15.070312 -12.625 15.101562 -12.695312 15.1875 -12.84375 C 15.28125 -13 15.316406 -13.078125 15.296875 -13.078125 C 14.847656 -12.398438 14.4375 -11.707031 14.0625 -11 C 13.695312 -10.289062 13.359375 -9.5625 13.046875 -8.8125 C 13.128906 -8.96875 13.238281 -9.191406 13.375 -9.484375 C 13.519531 -9.785156 13.664062 -10.085938 13.8125 -10.390625 C 13.957031 -10.691406 14.085938 -10.953125 14.203125 -11.171875 C 14.328125 -11.398438 14.414062 -11.53125 14.46875 -11.5625 C 14.414062 -11.507812 14.320312 -11.335938 14.1875 -11.046875 C 14.050781 -10.753906 13.894531 -10.421875 13.71875 -10.046875 C 13.550781 -9.679688 13.398438 -9.347656 13.265625 -9.046875 C 13.140625 -8.753906 13.054688 -8.582031 13.015625 -8.53125 C 12.796875 -8.007812 12.585938 -7.476562 12.390625 -6.9375 C 12.191406 -6.40625 12.015625 -5.863281 11.859375 -5.3125 C 11.710938 -4.78125 11.570312 -4.25 11.4375 -3.71875 C 11.3125 -3.195312 11.175781 -2.664062 11.03125 -2.125 C 10.90625 -1.675781 10.765625 -1.203125 10.609375 -0.703125 C 10.453125 -0.210938 10.347656 0.242188 10.296875 0.671875 C 10.316406 0.617188 10.332031 0.566406 10.34375 0.515625 C 10.363281 0.460938 10.390625 0.410156 10.421875 0.359375 C 10.421875 0.359375 10.414062 0.46875 10.40625 0.6875 C 10.40625 0.90625 10.40625 1.125 10.40625 1.34375 C 10.414062 1.570312 10.421875 1.722656 10.421875 1.796875 C 10.460938 1.941406 10.484375 2.035156 10.484375 2.078125 C 10.492188 2.128906 10.5625 2.144531 10.6875 2.125 C 10.914062 2.09375 11.144531 1.941406 11.375 1.671875 C 11.601562 1.398438 11.78125 1.195312 11.90625 1.0625 C 11.988281 0.9375 12.109375 0.757812 12.265625 0.53125 C 12.421875 0.300781 12.566406 0.160156 12.703125 0.109375 C 12.804688 0.0546875 12.878906 0.0351562 12.921875 0.046875 C 12.972656 0.0664062 13.023438 0.140625 13.078125 0.265625 C 13.160156 0.429688 13.15625 0.660156 13.0625 0.953125 C 12.976562 1.253906 12.90625 1.5 12.84375 1.6875 C 12.769531 1.90625 12.675781 2.101562 12.5625 2.28125 C 12.445312 2.46875 12.320312 2.660156 12.1875 2.859375 C 12 3.128906 11.785156 3.359375 11.546875 3.546875 C 11.316406 3.742188 11.015625 3.832031 10.640625 3.8125 C 9.890625 3.757812 9.304688 3.445312 8.890625 2.875 C 8.566406 2.40625 8.363281 1.875 8.28125 1.28125 C 8.207031 0.6875 8.207031 0.117188 8.28125 -0.421875 C 8.3125 -0.617188 8.351562 -0.804688 8.40625 -0.984375 C 8.46875 -1.171875 8.523438 -1.351562 8.578125 -1.53125 C 8.597656 -1.582031 8.609375 -1.679688 8.609375 -1.828125 C 8.609375 -1.972656 8.613281 -2.113281 8.625 -2.25 C 8.644531 -2.394531 8.664062 -2.46875 8.6875 -2.46875 C 8.707031 -2.445312 8.71875 -2.421875 8.71875 -2.390625 C 8.726562 -2.421875 8.734375 -2.476562 8.734375 -2.5625 C 8.722656 -2.550781 8.722656 -2.648438 8.734375 -2.859375 C 8.753906 -3.066406 8.773438 -3.203125 8.796875 -3.265625 C 8.828125 -3.441406 8.867188 -3.609375 8.921875 -3.765625 C 8.972656 -3.929688 9.023438 -4.101562 9.078125 -4.28125 C 9.160156 -4.59375 9.226562 -4.90625 9.28125 -5.21875 C 9.332031 -5.53125 9.410156 -5.835938 9.515625 -6.140625 C 9.148438 -5.554688 8.78125 -4.972656 8.40625 -4.390625 C 8.039062 -3.816406 7.660156 -3.253906 7.265625 -2.703125 C 6.878906 -2.203125 6.472656 -1.71875 6.046875 -1.25 C 5.628906 -0.78125 5.203125 -0.3125 4.765625 0.15625 C 4.765625 0.15625 4.710938 0.21875 4.609375 0.34375 C 4.515625 0.476562 4.429688 0.5625 4.359375 0.59375 C 4.390625 0.5625 4.445312 0.5 4.53125 0.40625 C 4.625 0.3125 4.671875 0.265625 4.671875 0.265625 L 4.171875 0.71875 C 4.273438 0.65625 4.3125 0.644531 4.28125 0.6875 C 4.25 0.726562 4.191406 0.785156 4.109375 0.859375 C 4.035156 0.941406 3.976562 0.992188 3.9375 1.015625 C 3.820312 1.128906 3.660156 1.207031 3.453125 1.25 C 3.359375 1.257812 3.257812 1.25 3.15625 1.21875 C 3.0625 1.195312 2.96875 1.179688 2.875 1.171875 C 2.34375 0.992188 1.847656 0.695312 1.390625 0.28125 C 0.929688 -0.132812 0.5625 -0.582031 0.28125 -1.0625 C 0.144531 -1.34375 0.0546875 -1.617188 0.015625 -1.890625 C -0.015625 -2.171875 -0.0195312 -2.457031 0 -2.75 C 0.0507812 -3.300781 0.128906 -3.851562 0.234375 -4.40625 C 0.253906 -4.457031 0.289062 -4.59375 0.34375 -4.8125 C 0.394531 -5.03125 0.445312 -5.234375 0.5 -5.421875 C 0.550781 -5.609375 0.59375 -5.703125 0.625 -5.703125 C 0.625 -5.703125 0.613281 -5.644531 0.59375 -5.53125 C 0.582031 -5.425781 0.582031 -5.375 0.59375 -5.375 C 0.644531 -5.613281 0.695312 -5.84375 0.75 -6.0625 C 0.800781 -6.289062 0.863281 -6.519531 0.9375 -6.75 L 0.78125 -6.40625 C 0.757812 -6.59375 0.804688 -6.832031 0.921875 -7.125 C 1.046875 -7.425781 1.132812 -7.660156 1.1875 -7.828125 C 1.238281 -8.023438 1.289062 -8.210938 1.34375 -8.390625 C 1.394531 -8.566406 1.457031 -8.742188 1.53125 -8.921875 C 1.664062 -9.390625 1.816406 -9.851562 1.984375 -10.3125 C 2.160156 -10.769531 2.351562 -11.210938 2.5625 -11.640625 C 2.769531 -12.128906 2.972656 -12.613281 3.171875 -13.09375 C 3.367188 -13.582031 3.582031 -14.0625 3.8125 -14.53125 C 3.9375 -14.75 4.050781 -14.976562 4.15625 -15.21875 C 4.257812 -15.46875 4.394531 -15.6875 4.5625 -15.875 C 4.664062 -16 4.75 -16.085938 4.8125 -16.140625 C 4.875 -16.203125 4.9375 -16.3125 5 -16.46875 C 5.195312 -16.863281 5.398438 -17.273438 5.609375 -17.703125 C 5.828125 -18.128906 6.078125 -18.515625 6.359375 -18.859375 C 6.410156 -18.921875 6.460938 -18.984375 6.515625 -19.046875 C 6.578125 -19.109375 6.644531 -19.164062 6.71875 -19.21875 C 6.976562 -19.351562 7.238281 -19.367188 7.5 -19.265625 C 7.757812 -19.160156 7.992188 -19.003906 8.203125 -18.796875 C 8.421875 -18.597656 8.582031 -18.382812 8.6875 -18.15625 C 8.789062 -17.875 8.8125 -17.664062 8.75 -17.53125 C 8.6875 -17.394531 8.585938 -17.238281 8.453125 -17.0625 C 8.554688 -17.132812 8.609375 -17.160156 8.609375 -17.140625 C 8.609375 -17.109375 8.554688 -17.007812 8.453125 -16.84375 C 8.347656 -16.675781 8.222656 -16.492188 8.078125 -16.296875 C 7.929688 -16.097656 7.800781 -15.929688 7.6875 -15.796875 C 7.570312 -15.660156 7.5 -15.59375 7.46875 -15.59375 C 7.46875 -15.59375 7.507812 -15.664062 7.59375 -15.8125 C 7.6875 -15.957031 7.765625 -16.082031 7.828125 -16.1875 C 7.535156 -15.769531 7.253906 -15.34375 6.984375 -14.90625 C 6.722656 -14.476562 6.46875 -14.039062 6.21875 -13.59375 C 6.320312 -13.726562 6.394531 -13.804688 6.4375 -13.828125 C 6.363281 -13.753906 6.253906 -13.570312 6.109375 -13.28125 C 5.972656 -12.988281 5.816406 -12.632812 5.640625 -12.21875 C 5.472656 -11.800781 5.300781 -11.390625 5.125 -10.984375 C 4.957031 -10.578125 4.8125 -10.222656 4.6875 -9.921875 C 4.570312 -9.617188 4.5 -9.429688 4.46875 -9.359375 C 4.164062 -8.640625 3.890625 -7.898438 3.640625 -7.140625 C 3.390625 -6.390625 3.171875 -5.625 2.984375 -4.84375 L 3.0625 -5.625 L 3.03125 -5.46875 C 3.03125 -5.507812 3.035156 -5.550781 3.046875 -5.59375 C 3.054688 -5.632812 3.0625 -5.671875 3.0625 -5.703125 L 2.90625 -5.0625 L 3.015625 -5.3125 C 2.941406 -4.65625 2.816406 -3.984375 2.640625 -3.296875 C 2.472656 -2.617188 2.441406 -1.9375 2.546875 -1.25 C 2.554688 -1.15625 2.578125 -1.039062 2.609375 -0.90625 C 2.648438 -0.769531 2.722656 -0.675781 2.828125 -0.625 C 2.984375 -0.550781 3.191406 -0.609375 3.453125 -0.796875 C 3.710938 -0.992188 3.984375 -1.242188 4.265625 -1.546875 C 4.546875 -1.847656 4.796875 -2.132812 5.015625 -2.40625 C 5.234375 -2.6875 5.378906 -2.867188 5.453125 -2.953125 C 5.878906 -3.453125 6.304688 -3.957031 6.734375 -4.46875 C 7.171875 -4.976562 7.5625 -5.476562 7.90625 -5.96875 C 7.894531 -5.945312 7.835938 -5.867188 7.734375 -5.734375 C 7.640625 -5.609375 7.566406 -5.554688 7.515625 -5.578125 C 7.515625 -5.578125 7.566406 -5.65625 7.671875 -5.8125 C 7.773438 -5.96875 7.890625 -6.148438 8.015625 -6.359375 C 8.148438 -6.578125 8.273438 -6.769531 8.390625 -6.9375 C 8.515625 -7.113281 8.585938 -7.226562 8.609375 -7.28125 C 8.816406 -7.582031 9.019531 -7.878906 9.21875 -8.171875 C 9.414062 -8.460938 9.609375 -8.753906 9.796875 -9.046875 L 12.34375 -12.890625 C 12.550781 -13.203125 12.785156 -13.578125 13.046875 -14.015625 C 13.304688 -14.460938 13.570312 -14.78125 13.84375 -14.96875 C 14.09375 -15.132812 14.367188 -15.1875 14.671875 -15.125 C 14.984375 -15.070312 15.257812 -14.941406 15.5 -14.734375 C 15.75 -14.523438 15.890625 -14.28125 15.921875 -14 Z M 9.15625 -1.6875 C 9.28125 -2.207031 9.367188 -2.703125 9.421875 -3.171875 C 9.472656 -3.648438 9.566406 -4.148438 9.703125 -4.671875 C 9.523438 -4.222656 9.367188 -3.769531 9.234375 -3.3125 C 9.109375 -2.851562 9.003906 -2.375 8.921875 -1.875 C 8.816406 -1.28125 8.75 -0.660156 8.71875 -0.015625 C 8.695312 0.628906 8.75 1.257812 8.875 1.875 C 8.769531 1.332031 8.757812 0.738281 8.84375 0.09375 C 8.925781 -0.550781 9.03125 -1.144531 9.15625 -1.6875 Z M 4.828125 -11.546875 C 4.617188 -11.023438 4.414062 -10.503906 4.21875 -9.984375 C 4.019531 -9.460938 3.84375 -8.9375 3.6875 -8.40625 C 3.613281 -8.226562 3.554688 -8.046875 3.515625 -7.859375 C 3.472656 -7.679688 3.429688 -7.5 3.390625 -7.3125 C 3.585938 -8.007812 3.816406 -8.6875 4.078125 -9.34375 C 4.347656 -10.007812 4.628906 -10.691406 4.921875 -11.390625 C 5.328125 -12.253906 5.753906 -13.101562 6.203125 -13.9375 C 6.648438 -14.78125 7.140625 -15.585938 7.671875 -16.359375 C 7.140625 -15.617188 6.625 -14.847656 6.125 -14.046875 C 5.625 -13.242188 5.191406 -12.410156 4.828125 -11.546875 Z M 4.234375 -9.03125 C 4.335938 -9.269531 4.476562 -9.613281 4.65625 -10.0625 C 4.832031 -10.507812 5.03125 -10.976562 5.25 -11.46875 C 5.46875 -11.96875 5.671875 -12.414062 5.859375 -12.8125 C 5.253906 -11.582031 4.710938 -10.320312 4.234375 -9.03125 Z M 12.453125 -7.3125 L 12.625 -7.828125 L 12.171875 -6.640625 C 12.285156 -6.878906 12.378906 -7.101562 12.453125 -7.3125 Z M 6.21875 -13.5625 L 6.21875 -13.59375 Z M 8.171875 -16.984375 C 8.171875 -16.953125 8.15625 -16.9375 8.125 -16.9375 C 8.15625 -16.9375 8.171875 -16.953125 8.171875 -16.984375 Z M 8.171875 -16.984375 "/></g></g></g><g fill="#000000" fill-opacity="1"><g transform="translate(62.882087, 27.818389)"><g><path d="M 10.53125 -13.484375 L 10.53125 -13.46875 C 10.550781 -13.289062 10.472656 -13.128906 10.296875 -12.984375 C 10.117188 -12.847656 9.953125 -12.765625 9.796875 -12.734375 C 9.628906 -12.679688 9.453125 -12.6875 9.265625 -12.75 C 9.085938 -12.8125 8.921875 -12.820312 8.765625 -12.78125 C 8.679688 -12.769531 8.632812 -12.742188 8.625 -12.703125 C 8.613281 -12.671875 8.566406 -12.640625 8.484375 -12.609375 C 8.359375 -12.566406 8.226562 -12.546875 8.09375 -12.546875 C 7.96875 -12.546875 7.847656 -12.546875 7.734375 -12.546875 C 7.554688 -12.546875 7.320312 -12.566406 7.03125 -12.609375 C 6.738281 -12.660156 6.519531 -12.640625 6.375 -12.546875 C 6.320312 -12.535156 6.269531 -12.484375 6.21875 -12.390625 L 6.296875 -12.546875 C 6.234375 -12.535156 6.140625 -12.394531 6.015625 -12.125 C 5.898438 -11.851562 5.796875 -11.597656 5.703125 -11.359375 L 5.984375 -11.9375 L 5.625 -10.953125 C 5.507812 -10.671875 5.390625 -10.390625 5.265625 -10.109375 C 5.140625 -9.835938 5.019531 -9.5625 4.90625 -9.28125 C 4.675781 -8.75 4.453125 -8.207031 4.234375 -7.65625 C 4.023438 -7.113281 3.816406 -6.566406 3.609375 -6.015625 C 3.265625 -5.015625 2.925781 -3.984375 2.59375 -2.921875 C 2.257812 -1.867188 1.972656 -0.816406 1.734375 0.234375 C 1.722656 0.359375 1.675781 0.570312 1.59375 0.875 C 1.519531 1.175781 1.484375 1.472656 1.484375 1.765625 C 1.484375 2.054688 1.5625 2.238281 1.71875 2.3125 C 1.75 2.320312 1.859375 2.28125 2.046875 2.1875 C 2.234375 2.09375 2.320312 2.054688 2.3125 2.078125 C 2.375 2.003906 2.441406 1.929688 2.515625 1.859375 C 2.585938 1.796875 2.65625 1.726562 2.71875 1.65625 C 2.664062 1.695312 2.585938 1.753906 2.484375 1.828125 C 2.378906 1.910156 2.328125 1.941406 2.328125 1.921875 C 2.328125 1.867188 2.378906 1.785156 2.484375 1.671875 C 2.585938 1.554688 2.703125 1.441406 2.828125 1.328125 C 2.953125 1.222656 3.03125 1.148438 3.0625 1.109375 C 3.195312 0.972656 3.320312 0.835938 3.4375 0.703125 C 3.550781 0.566406 3.664062 0.4375 3.78125 0.3125 L 5.296875 -1.53125 C 5.753906 -2.113281 6.207031 -2.695312 6.65625 -3.28125 C 7.113281 -3.875 7.578125 -4.46875 8.046875 -5.0625 C 8.109375 -5.144531 8.195312 -5.28125 8.3125 -5.46875 C 8.425781 -5.664062 8.550781 -5.847656 8.6875 -6.015625 C 8.820312 -6.191406 8.941406 -6.285156 9.046875 -6.296875 C 9.253906 -6.335938 9.382812 -6.28125 9.4375 -6.125 C 9.488281 -5.96875 9.484375 -5.800781 9.421875 -5.625 C 9.296875 -5.28125 9.09375 -4.957031 8.8125 -4.65625 C 8.539062 -4.351562 8.3125 -4.046875 8.125 -3.734375 C 7.789062 -3.203125 7.4375 -2.675781 7.0625 -2.15625 C 6.695312 -1.632812 6.320312 -1.113281 5.9375 -0.59375 C 5.519531 -0.0390625 5.097656 0.507812 4.671875 1.0625 C 4.253906 1.613281 3.820312 2.160156 3.375 2.703125 C 3.164062 2.960938 2.925781 3.242188 2.65625 3.546875 C 2.382812 3.859375 2.085938 4.09375 1.765625 4.25 C 1.523438 4.375 1.253906 4.382812 0.953125 4.28125 C 0.660156 4.175781 0.410156 4.046875 0.203125 3.890625 C -0.015625 3.734375 -0.191406 3.539062 -0.328125 3.3125 C -0.472656 3.09375 -0.570312 2.851562 -0.625 2.59375 C -0.644531 2.507812 -0.671875 2.316406 -0.703125 2.015625 C -0.734375 1.710938 -0.71875 1.515625 -0.65625 1.421875 L -0.65625 1.8125 L -0.59375 1.296875 C -0.613281 1.347656 -0.628906 1.316406 -0.640625 1.203125 C -0.648438 1.085938 -0.65625 1.023438 -0.65625 1.015625 C -0.65625 0.910156 -0.640625 0.800781 -0.609375 0.6875 C -0.585938 0.570312 -0.566406 0.460938 -0.546875 0.359375 C -0.515625 0.148438 -0.472656 -0.0507812 -0.421875 -0.25 C -0.378906 -0.445312 -0.332031 -0.648438 -0.28125 -0.859375 C -0.195312 -1.253906 -0.101562 -1.65625 0 -2.0625 C 0.101562 -2.46875 0.191406 -2.878906 0.265625 -3.296875 C 0.328125 -3.710938 0.421875 -4.117188 0.546875 -4.515625 C 0.679688 -4.910156 0.8125 -5.300781 0.9375 -5.6875 C 0.945312 -5.738281 1 -5.898438 1.09375 -6.171875 C 1.195312 -6.453125 1.300781 -6.722656 1.40625 -6.984375 C 1.519531 -7.253906 1.597656 -7.390625 1.640625 -7.390625 C 1.648438 -7.390625 1.640625 -7.335938 1.609375 -7.234375 C 1.585938 -7.128906 1.578125 -7.070312 1.578125 -7.0625 C 1.628906 -7.25 1.691406 -7.441406 1.765625 -7.640625 C 1.835938 -7.835938 1.90625 -8.03125 1.96875 -8.21875 C 1.957031 -8.15625 1.929688 -8.097656 1.890625 -8.046875 C 1.859375 -8.003906 1.84375 -7.992188 1.84375 -8.015625 C 1.84375 -8.171875 1.898438 -8.363281 2.015625 -8.59375 C 2.140625 -8.832031 2.226562 -9.019531 2.28125 -9.15625 L 2.59375 -10.0625 C 2.726562 -10.476562 2.875 -10.894531 3.03125 -11.3125 C 3.1875 -11.726562 3.351562 -12.125 3.53125 -12.5 C 3.164062 -12.476562 2.8125 -12.46875 2.46875 -12.46875 C 2.125 -12.46875 1.773438 -12.4375 1.421875 -12.375 C 0.941406 -12.289062 0.414062 -12.257812 -0.15625 -12.28125 C -0.738281 -12.3125 -1.285156 -12.359375 -1.796875 -12.421875 C -1.859375 -12.441406 -1.988281 -12.46875 -2.1875 -12.5 C -2.382812 -12.53125 -2.453125 -12.617188 -2.390625 -12.765625 C -2.347656 -12.796875 -2.226562 -12.835938 -2.03125 -12.890625 C -1.832031 -12.941406 -1.707031 -12.976562 -1.65625 -13 C -1.414062 -13.082031 -1.164062 -13.128906 -0.90625 -13.140625 C -0.644531 -13.160156 -0.382812 -13.179688 -0.125 -13.203125 C 0.375 -13.253906 0.875 -13.28125 1.375 -13.28125 C 1.875 -13.28125 2.375 -13.316406 2.875 -13.390625 C 3.019531 -13.398438 3.179688 -13.394531 3.359375 -13.375 C 3.535156 -13.363281 3.6875 -13.382812 3.8125 -13.4375 C 3.9375 -13.46875 4.007812 -13.523438 4.03125 -13.609375 C 4.0625 -13.703125 4.101562 -13.804688 4.15625 -13.921875 C 4.238281 -14.171875 4.332031 -14.40625 4.4375 -14.625 C 4.539062 -14.851562 4.644531 -15.078125 4.75 -15.296875 C 4.863281 -15.546875 4.976562 -15.796875 5.09375 -16.046875 C 5.207031 -16.296875 5.34375 -16.53125 5.5 -16.75 C 5.601562 -16.894531 5.707031 -17.003906 5.8125 -17.078125 C 5.914062 -17.160156 6 -17.28125 6.0625 -17.4375 C 6.21875 -17.78125 6.390625 -18.125 6.578125 -18.46875 C 6.773438 -18.8125 6.992188 -19.128906 7.234375 -19.421875 C 7.492188 -19.773438 7.832031 -19.988281 8.25 -20.0625 C 8.664062 -20.132812 9.070312 -20.128906 9.46875 -20.046875 C 9.65625 -20.015625 9.847656 -19.929688 10.046875 -19.796875 C 10.242188 -19.671875 10.300781 -19.476562 10.21875 -19.21875 C 10.1875 -19.113281 10.117188 -19.023438 10.015625 -18.953125 C 9.910156 -18.890625 9.816406 -18.816406 9.734375 -18.734375 C 9.734375 -18.710938 9.769531 -18.738281 9.84375 -18.8125 C 9.914062 -18.894531 9.953125 -18.910156 9.953125 -18.859375 C 9.953125 -18.804688 9.863281 -18.65625 9.6875 -18.40625 C 9.519531 -18.15625 9.351562 -17.921875 9.1875 -17.703125 C 9.03125 -17.484375 8.929688 -17.375 8.890625 -17.375 C 8.890625 -17.375 8.921875 -17.429688 8.984375 -17.546875 C 9.046875 -17.660156 9.109375 -17.769531 9.171875 -17.875 C 9.242188 -17.988281 9.28125 -18.054688 9.28125 -18.078125 C 8.800781 -17.347656 8.347656 -16.59375 7.921875 -15.8125 C 7.492188 -15.039062 7.082031 -14.257812 6.6875 -13.46875 C 6.757812 -13.46875 6.847656 -13.5625 6.953125 -13.75 C 6.867188 -13.570312 6.828125 -13.476562 6.828125 -13.46875 C 7.328125 -13.5 7.832031 -13.519531 8.34375 -13.53125 C 8.863281 -13.539062 9.382812 -13.550781 9.90625 -13.5625 C 10.007812 -13.5625 10.132812 -13.59375 10.28125 -13.65625 C 10.425781 -13.726562 10.507812 -13.671875 10.53125 -13.484375 Z M 5.609375 -11.984375 C 6.117188 -13.085938 6.632812 -14.191406 7.15625 -15.296875 C 7.675781 -16.410156 8.28125 -17.46875 8.96875 -18.46875 C 7.9375 -17 7.054688 -15.425781 6.328125 -13.75 C 5.597656 -12.082031 4.875 -10.4375 4.15625 -8.8125 C 3.289062 -6.894531 2.570312 -4.941406 2 -2.953125 C 1.875 -2.503906 1.753906 -2.050781 1.640625 -1.59375 C 1.535156 -1.132812 1.4375 -0.671875 1.34375 -0.203125 L 1.484375 -0.703125 C 1.617188 -1.304688 1.785156 -1.910156 1.984375 -2.515625 C 2.179688 -3.117188 2.394531 -3.71875 2.625 -4.3125 C 3.082031 -5.582031 3.546875 -6.867188 4.015625 -8.171875 C 4.484375 -9.484375 5.015625 -10.753906 5.609375 -11.984375 Z M 7.3125 -14.546875 C 7.445312 -14.835938 7.566406 -15.101562 7.671875 -15.34375 C 7.773438 -15.59375 7.863281 -15.726562 7.9375 -15.75 Z M 4.640625 -8.890625 C 4.640625 -8.929688 4.648438 -8.96875 4.671875 -9 C 4.546875 -8.738281 4.4375 -8.476562 4.34375 -8.21875 C 4.25 -7.957031 4.148438 -7.707031 4.046875 -7.46875 C 4.148438 -7.707031 4.253906 -7.941406 4.359375 -8.171875 C 4.460938 -8.410156 4.554688 -8.648438 4.640625 -8.890625 Z M 6.984375 -13.796875 C 7.015625 -13.878906 7.054688 -13.96875 7.109375 -14.0625 C 7.160156 -14.164062 7.203125 -14.269531 7.234375 -14.375 Z M 1.328125 2.546875 L 1.25 2.484375 C 1.28125 2.523438 1.304688 2.546875 1.328125 2.546875 Z M 1.328125 2.546875 "/></g></g></g><g fill="#000000" fill-opacity="1"><g transform="translate(70.846555, 27.818389)"><g><path d="M 13.71875 -6.28125 L 13.71875 -6.25 C 13.75 -5.925781 13.660156 -5.65625 13.453125 -5.4375 C 13.253906 -5.21875 13.054688 -4.992188 12.859375 -4.765625 C 12.691406 -4.546875 12.507812 -4.3125 12.3125 -4.0625 C 12.125 -3.820312 11.921875 -3.59375 11.703125 -3.375 C 11.441406 -3.09375 11.1875 -2.8125 10.9375 -2.53125 C 10.6875 -2.257812 10.410156 -2.015625 10.109375 -1.796875 C 10.097656 -1.773438 9.988281 -1.703125 9.78125 -1.578125 C 9.570312 -1.460938 9.367188 -1.34375 9.171875 -1.21875 C 8.972656 -1.09375 8.851562 -1.015625 8.8125 -0.984375 L 8.8125 -1.03125 C 8.707031 -0.96875 8.691406 -0.941406 8.765625 -0.953125 C 8.835938 -0.972656 8.796875 -0.914062 8.640625 -0.78125 C 8.515625 -0.675781 8.378906 -0.59375 8.234375 -0.53125 C 8.085938 -0.46875 7.945312 -0.40625 7.8125 -0.34375 C 7.632812 -0.269531 7.46875 -0.1875 7.3125 -0.09375 C 7.15625 0 6.984375 0.0546875 6.796875 0.078125 C 6.742188 0.078125 6.613281 0.046875 6.40625 -0.015625 C 6.195312 -0.0859375 6.003906 -0.175781 5.828125 -0.28125 C 5.660156 -0.382812 5.601562 -0.472656 5.65625 -0.546875 C 5.675781 -0.578125 5.695312 -0.578125 5.71875 -0.546875 C 5.75 -0.515625 5.769531 -0.503906 5.78125 -0.515625 C 5.664062 -0.585938 5.554688 -0.691406 5.453125 -0.828125 C 5.453125 -0.804688 5.453125 -0.785156 5.453125 -0.765625 C 5.460938 -0.753906 5.46875 -0.738281 5.46875 -0.71875 C 5.457031 -0.707031 5.382812 -0.785156 5.25 -0.953125 C 5.125 -1.128906 4.988281 -1.3125 4.84375 -1.5 C 4.707031 -1.695312 4.628906 -1.8125 4.609375 -1.84375 C 4.492188 -2.082031 4.382812 -2.34375 4.28125 -2.625 C 4.175781 -2.914062 4.097656 -3.195312 4.046875 -3.46875 L 2.796875 -1.40625 C 2.640625 -1.175781 2.5 -0.894531 2.375 -0.5625 C 2.257812 -0.238281 2.054688 -0.0390625 1.765625 0.03125 C 1.742188 0.03125 1.601562 0.046875 1.34375 0.078125 C 1.082031 0.109375 0.910156 0.0664062 0.828125 -0.046875 C 0.859375 -0.015625 0.921875 0.00390625 1.015625 0.015625 C 1.117188 0.0351562 1.210938 0.046875 1.296875 0.046875 C 1.191406 0.0351562 1.082031 0.015625 0.96875 -0.015625 C 0.851562 -0.0546875 0.765625 -0.101562 0.703125 -0.15625 C 0.703125 -0.132812 0.703125 -0.117188 0.703125 -0.109375 C 0.710938 -0.109375 0.71875 -0.109375 0.71875 -0.109375 C 0.71875 -0.0859375 0.644531 -0.140625 0.5 -0.265625 C 0.351562 -0.398438 0.265625 -0.476562 0.234375 -0.5 C 0.148438 -0.632812 0.0859375 -0.78125 0.046875 -0.9375 C 0.015625 -1.09375 0 -1.25 0 -1.40625 C 0 -1.695312 0.03125 -1.984375 0.09375 -2.265625 C 0.164062 -2.554688 0.226562 -2.835938 0.28125 -3.109375 C 0.425781 -3.765625 0.582031 -4.414062 0.75 -5.0625 C 0.925781 -5.71875 1.066406 -6.375 1.171875 -7.03125 C 1.410156 -8.257812 1.71875 -9.453125 2.09375 -10.609375 C 2.195312 -10.929688 2.300781 -11.25 2.40625 -11.5625 C 2.507812 -11.875 2.625 -12.1875 2.75 -12.5 C 2.769531 -12.550781 2.816406 -12.6875 2.890625 -12.90625 C 2.972656 -13.132812 3.0625 -13.359375 3.15625 -13.578125 C 3.25 -13.796875 3.3125 -13.90625 3.34375 -13.90625 C 3.34375 -13.90625 3.316406 -13.820312 3.265625 -13.65625 C 3.210938 -13.488281 3.195312 -13.398438 3.21875 -13.390625 C 3.300781 -13.640625 3.382812 -13.890625 3.46875 -14.140625 C 3.5625 -14.398438 3.660156 -14.660156 3.765625 -14.921875 C 3.773438 -14.929688 3.78125 -14.945312 3.78125 -14.96875 C 3.820312 -15.050781 3.863281 -15.164062 3.90625 -15.3125 C 3.945312 -15.457031 3.984375 -15.582031 4.015625 -15.6875 L 4.546875 -16.78125 C 4.679688 -17.09375 4.820312 -17.398438 4.96875 -17.703125 C 5.113281 -18.003906 5.273438 -18.296875 5.453125 -18.578125 C 5.710938 -19.023438 6.019531 -19.472656 6.375 -19.921875 C 6.738281 -20.367188 7.164062 -20.707031 7.65625 -20.9375 C 8.050781 -21.125 8.429688 -21.15625 8.796875 -21.03125 C 9.160156 -20.914062 9.488281 -20.710938 9.78125 -20.421875 C 10.070312 -20.140625 10.304688 -19.816406 10.484375 -19.453125 C 10.617188 -19.160156 10.703125 -18.878906 10.734375 -18.609375 C 10.773438 -18.335938 10.742188 -18.054688 10.640625 -17.765625 C 10.460938 -17.234375 10.222656 -16.691406 9.921875 -16.140625 C 9.617188 -15.597656 9.285156 -15.113281 8.921875 -14.6875 C 8.628906 -14.351562 8.367188 -13.960938 8.140625 -13.515625 C 7.921875 -13.066406 7.679688 -12.644531 7.421875 -12.25 C 7.078125 -11.707031 6.726562 -11.175781 6.375 -10.65625 C 6.019531 -10.132812 5.640625 -9.625 5.234375 -9.125 C 5.066406 -8.90625 4.894531 -8.6875 4.71875 -8.46875 C 4.550781 -8.25 4.367188 -8.03125 4.171875 -7.8125 C 3.960938 -7.5625 3.804688 -7.328125 3.703125 -7.109375 C 3.597656 -6.898438 3.503906 -6.640625 3.421875 -6.328125 C 3.253906 -5.722656 3.082031 -5.113281 2.90625 -4.5 C 2.726562 -3.882812 2.570312 -3.273438 2.4375 -2.671875 L 3.140625 -3.890625 C 3.171875 -3.941406 3.253906 -4.066406 3.390625 -4.265625 C 3.535156 -4.460938 3.609375 -4.554688 3.609375 -4.546875 C 3.742188 -4.816406 3.914062 -5.09375 4.125 -5.375 C 4.125 -5.375 4.078125 -5.320312 3.984375 -5.21875 C 3.898438 -5.113281 3.816406 -5.007812 3.734375 -4.90625 C 3.648438 -4.800781 3.609375 -4.75 3.609375 -4.75 C 3.585938 -4.90625 3.675781 -5.113281 3.875 -5.375 C 4.070312 -5.644531 4.21875 -5.84375 4.3125 -5.96875 C 4.445312 -6.207031 4.59375 -6.4375 4.75 -6.65625 C 4.914062 -6.882812 5.078125 -7.113281 5.234375 -7.34375 C 5.585938 -7.8125 5.957031 -8.269531 6.34375 -8.71875 C 6.726562 -9.164062 7.140625 -9.578125 7.578125 -9.953125 C 7.890625 -10.234375 8.257812 -10.523438 8.6875 -10.828125 C 9.125 -11.128906 9.578125 -11.335938 10.046875 -11.453125 C 10.523438 -11.566406 10.960938 -11.445312 11.359375 -11.09375 C 11.753906 -10.75 11.957031 -10.382812 11.96875 -10 C 11.976562 -9.625 11.875 -9.253906 11.65625 -8.890625 C 11.4375 -8.535156 11.175781 -8.203125 10.875 -7.890625 C 10.457031 -7.484375 10 -7.113281 9.5 -6.78125 C 9.007812 -6.457031 8.515625 -6.160156 8.015625 -5.890625 C 7.734375 -5.734375 7.457031 -5.582031 7.1875 -5.4375 C 6.925781 -5.300781 6.648438 -5.175781 6.359375 -5.0625 C 6.304688 -5.039062 6.207031 -5.007812 6.0625 -4.96875 C 5.925781 -4.925781 5.84375 -4.882812 5.8125 -4.84375 C 5.8125 -4.832031 5.820312 -4.738281 5.84375 -4.5625 C 5.875 -4.394531 5.875 -4.300781 5.84375 -4.28125 C 5.800781 -4.28125 5.765625 -4.332031 5.734375 -4.4375 C 5.816406 -3.988281 5.941406 -3.53125 6.109375 -3.0625 C 6.273438 -2.59375 6.503906 -2.1875 6.796875 -1.84375 C 6.742188 -1.925781 6.65625 -2.085938 6.53125 -2.328125 C 6.414062 -2.578125 6.304688 -2.816406 6.203125 -3.046875 C 6.097656 -3.273438 6.035156 -3.4375 6.015625 -3.53125 C 6.046875 -3.425781 6.144531 -3.210938 6.3125 -2.890625 C 6.476562 -2.566406 6.660156 -2.265625 6.859375 -1.984375 C 7.054688 -1.710938 7.21875 -1.570312 7.34375 -1.5625 C 7.394531 -1.539062 7.441406 -1.535156 7.484375 -1.546875 C 7.523438 -1.554688 7.5625 -1.5625 7.59375 -1.5625 C 8.007812 -1.59375 8.390625 -1.769531 8.734375 -2.09375 C 9.085938 -2.425781 9.410156 -2.707031 9.703125 -2.9375 C 9.992188 -3.15625 10.316406 -3.378906 10.671875 -3.609375 C 11.023438 -3.847656 11.320312 -4.085938 11.5625 -4.328125 C 11.53125 -4.296875 11.472656 -4.28125 11.390625 -4.28125 C 11.367188 -4.3125 11.4375 -4.429688 11.59375 -4.640625 C 11.75 -4.847656 11.941406 -5.082031 12.171875 -5.34375 C 12.410156 -5.601562 12.617188 -5.835938 12.796875 -6.046875 C 12.984375 -6.253906 13.09375 -6.375 13.125 -6.40625 C 13.25 -6.507812 13.375 -6.570312 13.5 -6.59375 C 13.625 -6.625 13.695312 -6.519531 13.71875 -6.28125 Z M 8.09375 -18.9375 C 7.59375 -18.257812 7.171875 -17.519531 6.828125 -16.71875 C 6.492188 -15.914062 6.179688 -15.125 5.890625 -14.34375 C 5.578125 -13.507812 5.296875 -12.671875 5.046875 -11.828125 C 4.796875 -10.992188 4.550781 -10.15625 4.3125 -9.3125 C 5.019531 -10.25 5.703125 -11.203125 6.359375 -12.171875 C 7.015625 -13.148438 7.628906 -14.160156 8.203125 -15.203125 C 8.335938 -15.460938 8.476562 -15.71875 8.625 -15.96875 C 8.769531 -16.226562 8.90625 -16.5 9.03125 -16.78125 C 8.90625 -16.570312 8.789062 -16.375 8.6875 -16.1875 C 8.582031 -16 8.476562 -15.816406 8.375 -15.640625 C 8.1875 -15.273438 7.988281 -14.914062 7.78125 -14.5625 C 7.570312 -14.207031 7.359375 -13.859375 7.140625 -13.515625 L 6.5625 -12.609375 C 6.488281 -12.535156 6.410156 -12.441406 6.328125 -12.328125 C 6.242188 -12.222656 6.175781 -12.125 6.125 -12.03125 C 6.207031 -12.226562 6.320312 -12.421875 6.46875 -12.609375 C 6.613281 -12.796875 6.75 -12.984375 6.875 -13.171875 L 7.578125 -14.3125 C 7.816406 -14.726562 8.054688 -15.148438 8.296875 -15.578125 C 8.535156 -16.015625 8.753906 -16.453125 8.953125 -16.890625 C 9.054688 -17.097656 9.1875 -17.375 9.34375 -17.71875 C 9.5 -18.0625 9.613281 -18.40625 9.6875 -18.75 C 9.757812 -19.09375 9.722656 -19.367188 9.578125 -19.578125 C 9.421875 -19.785156 9.238281 -19.847656 9.03125 -19.765625 C 8.832031 -19.691406 8.644531 -19.5625 8.46875 -19.375 C 8.300781 -19.195312 8.175781 -19.050781 8.09375 -18.9375 Z M 5.5 -5.578125 C 6.15625 -5.835938 6.769531 -6.207031 7.34375 -6.6875 C 7.925781 -7.175781 8.460938 -7.679688 8.953125 -8.203125 C 9.003906 -8.253906 9.113281 -8.378906 9.28125 -8.578125 C 9.457031 -8.785156 9.632812 -9.019531 9.8125 -9.28125 C 10 -9.539062 10.140625 -9.78125 10.234375 -10 C 10.328125 -10.21875 10.320312 -10.359375 10.21875 -10.421875 C 10.113281 -10.515625 9.960938 -10.503906 9.765625 -10.390625 C 9.566406 -10.273438 9.363281 -10.125 9.15625 -9.9375 C 8.945312 -9.75 8.753906 -9.5625 8.578125 -9.375 C 8.410156 -9.195312 8.300781 -9.070312 8.25 -9 C 7.75 -8.46875 7.269531 -7.914062 6.8125 -7.34375 C 6.363281 -6.769531 5.925781 -6.179688 5.5 -5.578125 Z M 5.65625 -14.890625 C 5.320312 -14.109375 5.046875 -13.289062 4.828125 -12.4375 C 4.617188 -11.59375 4.425781 -10.765625 4.25 -9.953125 C 4.25 -9.941406 4.242188 -9.9375 4.234375 -9.9375 C 4.234375 -9.9375 4.234375 -9.925781 4.234375 -9.90625 L 4.25 -9.9375 L 4.203125 -9.734375 C 4.378906 -10.390625 4.566406 -11.03125 4.765625 -11.65625 C 4.960938 -12.289062 5.164062 -12.925781 5.375 -13.5625 C 5.5625 -14.113281 5.734375 -14.65625 5.890625 -15.1875 C 6.054688 -15.726562 6.242188 -16.269531 6.453125 -16.8125 C 6.492188 -16.894531 6.582031 -17.046875 6.71875 -17.265625 C 6.851562 -17.492188 6.957031 -17.695312 7.03125 -17.875 C 6.957031 -17.75 6.875 -17.617188 6.78125 -17.484375 C 6.6875 -17.347656 6.628906 -17.253906 6.609375 -17.203125 C 6.441406 -16.816406 6.28125 -16.425781 6.125 -16.03125 C 5.96875 -15.644531 5.8125 -15.265625 5.65625 -14.890625 Z M 3.78125 -14.96875 C 3.78125 -14.96875 3.78125 -14.960938 3.78125 -14.953125 C 3.78125 -14.941406 3.773438 -14.9375 3.765625 -14.9375 Z M 3.765625 -14.921875 L 3.765625 -14.9375 Z M 3.765625 -14.921875 "/></g></g></g><g fill="#000000" fill-opacity="1"><g transform="translate(82.676516, 27.818389)"><g><path d="M 13.203125 -6.25 C 13.234375 -5.957031 13.144531 -5.660156 12.9375 -5.359375 C 12.726562 -5.066406 12.570312 -4.800781 12.46875 -4.5625 C 12.300781 -4.1875 12.117188 -3.816406 11.921875 -3.453125 C 11.734375 -3.085938 11.535156 -2.734375 11.328125 -2.390625 C 11.085938 -2.003906 10.84375 -1.625 10.59375 -1.25 C 10.34375 -0.882812 10.070312 -0.53125 9.78125 -0.1875 C 9.550781 0.113281 9.273438 0.414062 8.953125 0.71875 C 8.640625 1.03125 8.285156 1.222656 7.890625 1.296875 C 7.453125 1.367188 7.0625 1.253906 6.71875 0.953125 C 6.382812 0.660156 6.148438 0.328125 6.015625 -0.046875 C 5.703125 -0.804688 5.613281 -1.578125 5.75 -2.359375 C 5.894531 -3.148438 6.078125 -3.921875 6.296875 -4.671875 C 6.296875 -4.671875 6.296875 -4.71875 6.296875 -4.8125 C 6.296875 -4.90625 6.304688 -4.992188 6.328125 -5.078125 C 6.203125 -4.890625 6.054688 -4.6875 5.890625 -4.46875 C 5.734375 -4.257812 5.59375 -4.054688 5.46875 -3.859375 C 5.3125 -3.617188 5.164062 -3.378906 5.03125 -3.140625 C 4.90625 -2.898438 4.757812 -2.65625 4.59375 -2.40625 C 4.5625 -2.351562 4.421875 -2.1875 4.171875 -1.90625 C 3.929688 -1.625 3.660156 -1.316406 3.359375 -0.984375 C 3.054688 -0.660156 2.773438 -0.394531 2.515625 -0.1875 C 2.253906 0.0078125 2.085938 0.0546875 2.015625 -0.046875 C 2.015625 -0.046875 2.066406 -0.0703125 2.171875 -0.125 C 2.273438 -0.175781 2.320312 -0.210938 2.3125 -0.234375 C 1.976562 -0.00390625 1.613281 0.046875 1.21875 -0.078125 C 1.300781 -0.0234375 1.335938 0 1.328125 0 C 1.128906 0.0195312 0.945312 -0.046875 0.78125 -0.203125 C 0.625 -0.359375 0.488281 -0.539062 0.375 -0.75 C 0.257812 -0.957031 0.175781 -1.128906 0.125 -1.265625 C 0.0195312 -1.628906 -0.0234375 -2.003906 -0.015625 -2.390625 C -0.00390625 -2.785156 0.0351562 -3.164062 0.109375 -3.53125 C 0.242188 -4.289062 0.46875 -5.054688 0.78125 -5.828125 C 1.09375 -6.609375 1.460938 -7.320312 1.890625 -7.96875 C 2.015625 -8.125 2.132812 -8.28125 2.25 -8.4375 C 2.375 -8.601562 2.523438 -8.75 2.703125 -8.875 C 2.804688 -8.957031 2.90625 -9.019531 3 -9.0625 C 3.09375 -9.101562 3.195312 -9.160156 3.3125 -9.234375 C 3.507812 -9.410156 3.707031 -9.554688 3.90625 -9.671875 C 4.101562 -9.796875 4.335938 -9.859375 4.609375 -9.859375 C 5.046875 -9.859375 5.394531 -9.722656 5.65625 -9.453125 C 5.925781 -9.179688 6.140625 -8.851562 6.296875 -8.46875 C 6.453125 -8.09375 6.578125 -7.742188 6.671875 -7.421875 C 6.878906 -7.691406 7.132812 -7.953125 7.4375 -8.203125 C 7.738281 -8.453125 8.054688 -8.597656 8.390625 -8.640625 C 8.722656 -8.691406 9.046875 -8.519531 9.359375 -8.125 C 9.617188 -7.8125 9.703125 -7.53125 9.609375 -7.28125 C 9.515625 -7.03125 9.398438 -6.753906 9.265625 -6.453125 C 9.015625 -6.003906 8.796875 -5.515625 8.609375 -4.984375 C 8.421875 -4.460938 8.273438 -3.96875 8.171875 -3.5 C 8.191406 -3.53125 8.21875 -3.613281 8.25 -3.75 C 8.28125 -3.894531 8.320312 -3.976562 8.375 -4 C 8.414062 -4.007812 8.410156 -3.878906 8.359375 -3.609375 C 8.304688 -3.347656 8.234375 -3.023438 8.140625 -2.640625 C 8.054688 -2.265625 7.992188 -1.894531 7.953125 -1.53125 C 7.910156 -1.164062 7.914062 -0.878906 7.96875 -0.671875 C 8.03125 -0.460938 8.171875 -0.40625 8.390625 -0.5 C 8.609375 -0.601562 8.941406 -0.929688 9.390625 -1.484375 C 9.785156 -1.984375 10.164062 -2.492188 10.53125 -3.015625 C 10.894531 -3.546875 11.25 -4.078125 11.59375 -4.609375 C 11.75 -4.859375 11.90625 -5.113281 12.0625 -5.375 C 12.21875 -5.632812 12.378906 -5.882812 12.546875 -6.125 C 12.597656 -6.1875 12.675781 -6.265625 12.78125 -6.359375 C 12.882812 -6.460938 12.976562 -6.515625 13.0625 -6.515625 C 13.15625 -6.523438 13.203125 -6.4375 13.203125 -6.25 Z M 5.765625 -6.0625 C 5.828125 -6.164062 5.863281 -6.234375 5.875 -6.265625 C 5.882812 -6.304688 5.890625 -6.378906 5.890625 -6.484375 C 5.890625 -6.554688 5.84375 -6.722656 5.75 -6.984375 C 5.664062 -7.253906 5.59375 -7.519531 5.53125 -7.78125 C 5.476562 -8.039062 5.46875 -8.1875 5.5 -8.21875 C 5.519531 -8.238281 5.550781 -8.179688 5.59375 -8.046875 C 5.632812 -7.921875 5.675781 -7.789062 5.71875 -7.65625 C 5.757812 -7.53125 5.78125 -7.457031 5.78125 -7.4375 C 5.769531 -7.539062 5.738281 -7.691406 5.6875 -7.890625 C 5.644531 -8.097656 5.582031 -8.285156 5.5 -8.453125 C 5.414062 -8.628906 5.296875 -8.71875 5.140625 -8.71875 C 4.859375 -8.71875 4.597656 -8.578125 4.359375 -8.296875 C 4.117188 -8.023438 3.914062 -7.710938 3.75 -7.359375 C 3.582031 -7.015625 3.445312 -6.738281 3.34375 -6.53125 C 3.082031 -5.945312 2.84375 -5.347656 2.625 -4.734375 C 2.414062 -4.117188 2.257812 -3.492188 2.15625 -2.859375 C 2.164062 -2.941406 2.226562 -3.164062 2.34375 -3.53125 C 2.457031 -3.894531 2.597656 -4.320312 2.765625 -4.8125 C 2.941406 -5.300781 3.117188 -5.785156 3.296875 -6.265625 C 3.484375 -6.742188 3.660156 -7.132812 3.828125 -7.4375 C 3.992188 -7.75 4.117188 -7.90625 4.203125 -7.90625 C 4.128906 -7.894531 4.023438 -7.75 3.890625 -7.46875 C 3.753906 -7.195312 3.601562 -6.851562 3.4375 -6.4375 C 3.269531 -6.019531 3.109375 -5.597656 2.953125 -5.171875 C 2.796875 -4.753906 2.664062 -4.382812 2.5625 -4.0625 C 2.457031 -3.738281 2.398438 -3.539062 2.390625 -3.46875 C 2.367188 -3.40625 2.320312 -3.242188 2.25 -2.984375 C 2.1875 -2.722656 2.148438 -2.472656 2.140625 -2.234375 C 2.128906 -1.992188 2.1875 -1.847656 2.3125 -1.796875 C 2.394531 -1.773438 2.507812 -1.820312 2.65625 -1.9375 C 2.800781 -2.0625 2.9375 -2.207031 3.0625 -2.375 C 3.195312 -2.539062 3.28125 -2.648438 3.3125 -2.703125 C 3.820312 -3.304688 4.289062 -3.925781 4.71875 -4.5625 L 5.390625 -5.53125 C 5.441406 -5.613281 5.5 -5.703125 5.5625 -5.796875 C 5.625 -5.890625 5.691406 -5.976562 5.765625 -6.0625 Z M 6.359375 -4.796875 L 6.59375 -5.421875 L 6.453125 -5.234375 C 6.441406 -5.203125 6.421875 -5.117188 6.390625 -4.984375 C 6.367188 -4.859375 6.359375 -4.796875 6.359375 -4.796875 Z M 5.96875 -6.40625 C 6.03125 -6.476562 6.03125 -6.566406 5.96875 -6.671875 Z M 5.96875 -6.40625 "/></g></g></g><g fill="#000000" fill-opacity="1"><g transform="translate(93.987619, 27.818389)"><g><path d="M 10.640625 -6.296875 C 10.671875 -6.128906 10.640625 -5.941406 10.546875 -5.734375 C 10.460938 -5.523438 10.378906 -5.34375 10.296875 -5.1875 C 10.191406 -4.957031 10.070312 -4.738281 9.9375 -4.53125 C 9.8125 -4.332031 9.679688 -4.128906 9.546875 -3.921875 C 9.253906 -3.484375 8.945312 -3.046875 8.625 -2.609375 C 8.300781 -2.171875 7.984375 -1.722656 7.671875 -1.265625 C 7.359375 -0.835938 7.03125 -0.414062 6.6875 0 C 6.34375 0.414062 5.960938 0.796875 5.546875 1.140625 C 5.492188 1.171875 5.351562 1.273438 5.125 1.453125 C 4.90625 1.628906 4.691406 1.789062 4.484375 1.9375 C 4.273438 2.09375 4.15625 2.171875 4.125 2.171875 C 4.125 2.160156 4.140625 2.132812 4.171875 2.09375 L 4 2.171875 C 4.0625 2.160156 4.007812 2.207031 3.84375 2.3125 C 3.6875 2.425781 3.570312 2.503906 3.5 2.546875 C 3.132812 2.609375 2.78125 2.53125 2.4375 2.3125 C 2.257812 2.207031 2.125 2.078125 2.03125 1.921875 C 1.9375 1.765625 1.847656 1.597656 1.765625 1.421875 C 1.640625 1.128906 1.5625 0.84375 1.53125 0.5625 C 1.507812 0.289062 1.523438 0 1.578125 -0.3125 C 1.597656 -0.363281 1.640625 -0.519531 1.703125 -0.78125 C 1.773438 -1.039062 1.851562 -1.300781 1.9375 -1.5625 C 2.03125 -1.820312 2.101562 -1.941406 2.15625 -1.921875 C 2.1875 -1.921875 2.179688 -1.882812 2.140625 -1.8125 C 2.109375 -1.75 2.101562 -1.707031 2.125 -1.6875 L 2.3125 -2.328125 C 2.289062 -2.328125 2.34375 -2.476562 2.46875 -2.78125 C 2.601562 -3.09375 2.757812 -3.445312 2.9375 -3.84375 C 3.125 -4.238281 3.296875 -4.59375 3.453125 -4.90625 C 3.609375 -5.21875 3.703125 -5.398438 3.734375 -5.453125 C 3.359375 -5.378906 2.945312 -5.367188 2.5 -5.421875 C 2.0625 -5.472656 1.703125 -5.660156 1.421875 -5.984375 C 1.359375 -6.085938 1.328125 -6.1875 1.328125 -6.28125 C 1.328125 -6.382812 1.304688 -6.46875 1.265625 -6.53125 C 1.234375 -6.632812 1.195312 -6.722656 1.15625 -6.796875 C 1.113281 -6.867188 1.070312 -6.945312 1.03125 -7.03125 C 0.96875 -7.34375 1 -7.671875 1.125 -8.015625 C 1.257812 -8.359375 1.453125 -8.660156 1.703125 -8.921875 C 1.953125 -9.179688 2.234375 -9.34375 2.546875 -9.40625 C 2.867188 -9.476562 3.1875 -9.410156 3.5 -9.203125 L 3.453125 -9.28125 C 3.460938 -9.375 3.519531 -9.351562 3.625 -9.21875 C 3.726562 -9.09375 3.789062 -8.992188 3.8125 -8.921875 C 3.8125 -8.890625 3.789062 -8.804688 3.75 -8.671875 C 3.71875 -8.546875 3.675781 -8.421875 3.625 -8.296875 C 3.570312 -8.179688 3.519531 -8.128906 3.46875 -8.140625 C 3.457031 -8.140625 3.476562 -8.21875 3.53125 -8.375 C 3.59375 -8.53125 3.625 -8.617188 3.625 -8.640625 C 3.539062 -8.398438 3.398438 -8.144531 3.203125 -7.875 C 3.003906 -7.601562 2.890625 -7.335938 2.859375 -7.078125 C 2.835938 -6.890625 2.867188 -6.773438 2.953125 -6.734375 C 3.046875 -6.691406 3.175781 -6.648438 3.34375 -6.609375 C 3.582031 -6.546875 3.878906 -6.515625 4.234375 -6.515625 C 4.585938 -6.515625 4.921875 -6.46875 5.234375 -6.375 C 5.023438 -6.445312 4.804688 -6.492188 4.578125 -6.515625 C 4.359375 -6.546875 4.164062 -6.570312 4 -6.59375 C 4 -6.59375 3.992188 -6.59375 3.984375 -6.59375 C 3.972656 -6.59375 3.96875 -6.597656 3.96875 -6.609375 C 4.15625 -6.597656 4.347656 -6.582031 4.546875 -6.5625 C 4.742188 -6.539062 4.929688 -6.515625 5.109375 -6.484375 C 5.492188 -6.398438 5.78125 -6.265625 5.96875 -6.078125 C 6.15625 -5.898438 6.171875 -5.613281 6.015625 -5.21875 C 5.859375 -4.832031 5.6875 -4.453125 5.5 -4.078125 C 5.320312 -3.710938 5.148438 -3.335938 4.984375 -2.953125 C 4.828125 -2.585938 4.675781 -2.210938 4.53125 -1.828125 C 4.394531 -1.453125 4.257812 -1.078125 4.125 -0.703125 C 4.101562 -0.617188 4.039062 -0.460938 3.9375 -0.234375 C 3.832031 -0.00390625 3.742188 0.21875 3.671875 0.4375 C 3.609375 0.664062 3.613281 0.820312 3.6875 0.90625 C 3.75 0.976562 3.867188 0.96875 4.046875 0.875 C 4.234375 0.789062 4.4375 0.65625 4.65625 0.46875 C 4.882812 0.289062 5.097656 0.113281 5.296875 -0.0625 C 5.503906 -0.25 5.660156 -0.394531 5.765625 -0.5 C 5.722656 -0.457031 5.6875 -0.429688 5.65625 -0.421875 C 5.625 -0.421875 5.585938 -0.398438 5.546875 -0.359375 C 5.535156 -0.359375 5.570312 -0.414062 5.65625 -0.53125 C 5.738281 -0.65625 5.835938 -0.785156 5.953125 -0.921875 C 6.066406 -1.066406 6.128906 -1.15625 6.140625 -1.1875 L 6.90625 -2.15625 L 8.296875 -4 L 9.734375 -5.90625 C 9.773438 -5.957031 9.859375 -6.0625 9.984375 -6.21875 C 10.109375 -6.375 10.234375 -6.484375 10.359375 -6.546875 C 10.492188 -6.609375 10.585938 -6.523438 10.640625 -6.296875 Z M 2.875 -3.1875 C 2.71875 -2.820312 2.566406 -2.453125 2.421875 -2.078125 C 2.273438 -1.710938 2.160156 -1.332031 2.078125 -0.9375 C 2.160156 -1.28125 2.269531 -1.609375 2.40625 -1.921875 C 2.550781 -2.242188 2.679688 -2.5625 2.796875 -2.875 L 3.296875 -4.015625 C 3.347656 -4.109375 3.425781 -4.273438 3.53125 -4.515625 C 3.644531 -4.753906 3.757812 -4.988281 3.875 -5.21875 C 3.988281 -5.457031 4.0625 -5.585938 4.09375 -5.609375 C 4.039062 -5.585938 3.96875 -5.492188 3.875 -5.328125 C 3.78125 -5.160156 3.695312 -4.992188 3.625 -4.828125 C 3.5625 -4.671875 3.519531 -4.578125 3.5 -4.546875 C 3.257812 -4.078125 3.050781 -3.625 2.875 -3.1875 Z M 2.25 1.796875 L 2.25 1.8125 C 2.21875 1.78125 2.203125 1.753906 2.203125 1.734375 L 2.234375 1.765625 C 2.160156 1.628906 2.097656 1.488281 2.046875 1.34375 C 1.992188 1.207031 1.953125 1.101562 1.921875 1.03125 L 2 1.375 L 1.890625 0.828125 L 1.890625 0.796875 C 1.878906 0.765625 1.875 0.742188 1.875 0.734375 C 1.875 0.722656 1.875 0.71875 1.875 0.71875 C 1.875 0.71875 1.875 0.722656 1.875 0.734375 C 1.875 0.742188 1.878906 0.757812 1.890625 0.78125 L 1.890625 0.65625 C 1.878906 0.457031 1.878906 0.273438 1.890625 0.109375 C 1.910156 -0.046875 1.929688 -0.210938 1.953125 -0.390625 L 1.953125 -0.421875 C 1.898438 -0.191406 1.875 0.0390625 1.875 0.28125 C 1.832031 0.613281 1.859375 0.941406 1.953125 1.265625 C 1.960938 1.304688 2.007812 1.410156 2.09375 1.578125 C 2.1875 1.753906 2.265625 1.894531 2.328125 2 C 2.328125 1.96875 2.320312 1.953125 2.3125 1.953125 C 2.476562 2.097656 2.675781 2.21875 2.90625 2.3125 C 2.769531 2.257812 2.648438 2.1875 2.546875 2.09375 C 2.441406 2 2.34375 1.898438 2.25 1.796875 Z M 2.984375 -6.765625 C 2.910156 -6.804688 2.875 -6.878906 2.875 -6.984375 C 2.894531 -6.960938 2.929688 -6.925781 2.984375 -6.875 C 3.035156 -6.820312 3.0625 -6.796875 3.0625 -6.796875 C 3.1875 -6.710938 3.359375 -6.648438 3.578125 -6.609375 C 3.453125 -6.628906 3.335938 -6.644531 3.234375 -6.65625 C 3.140625 -6.675781 3.054688 -6.710938 2.984375 -6.765625 Z M 5.703125 -4.75 L 5.703125 -4.765625 L 5.15625 -3.609375 Z M 1.96875 -0.5 C 1.96875 -0.476562 1.960938 -0.46875 1.953125 -0.46875 C 1.953125 -0.46875 1.953125 -0.457031 1.953125 -0.4375 L 1.953125 -0.421875 C 1.953125 -0.429688 1.953125 -0.441406 1.953125 -0.453125 C 1.960938 -0.460938 1.96875 -0.476562 1.96875 -0.5 Z M 5.734375 -4.828125 L 5.703125 -4.796875 L 5.734375 -4.796875 Z M 5.734375 -4.828125 L 5.703125 -4.796875 L 5.734375 -4.796875 Z M 2 -0.828125 C 2 -0.847656 2 -0.863281 2 -0.875 C 2.007812 -0.894531 2.015625 -0.914062 2.015625 -0.9375 C 2.015625 -0.914062 2.007812 -0.894531 2 -0.875 C 2 -0.863281 2 -0.847656 2 -0.828125 Z M 2.09375 1.5625 C 2.09375 1.570312 2.097656 1.578125 2.109375 1.578125 C 2.117188 1.578125 2.125 1.585938 2.125 1.609375 C 2.125 1.585938 2.117188 1.570312 2.109375 1.5625 C 2.097656 1.5625 2.09375 1.5625 2.09375 1.5625 Z M 2.90625 -7.03125 L 2.875 -7 C 2.875 -7 2.875 -7.003906 2.875 -7.015625 C 2.875 -7.023438 2.882812 -7.03125 2.90625 -7.03125 Z M 2.90625 -7.03125 "/></g></g></g><g fill="#000000" fill-opacity="1"><g transform="translate(102.730374, 27.818389)"><g><path d="M 10.296875 -6.09375 L 10.296875 -6.0625 C 10.328125 -5.789062 10.234375 -5.53125 10.015625 -5.28125 C 9.804688 -5.039062 9.554688 -4.832031 9.265625 -4.65625 C 8.984375 -4.476562 8.75 -4.316406 8.5625 -4.171875 C 8.175781 -3.898438 7.789062 -3.640625 7.40625 -3.390625 C 7.03125 -3.140625 6.632812 -2.898438 6.21875 -2.671875 C 6.113281 -2.617188 5.992188 -2.566406 5.859375 -2.515625 C 5.722656 -2.460938 5.601562 -2.394531 5.5 -2.3125 C 5.363281 -2.1875 5.296875 -2.101562 5.296875 -2.0625 C 5.296875 -2.019531 5.300781 -1.894531 5.3125 -1.6875 C 5.351562 -1.457031 5.382812 -1.222656 5.40625 -0.984375 C 5.4375 -0.742188 5.453125 -0.503906 5.453125 -0.265625 C 5.460938 0.0976562 5.445312 0.460938 5.40625 0.828125 C 5.363281 1.191406 5.273438 1.546875 5.140625 1.890625 C 4.828125 2.691406 4.363281 3.328125 3.75 3.796875 C 3.132812 4.273438 2.378906 4.503906 1.484375 4.484375 C 0.941406 4.472656 0.429688 4.375 -0.046875 4.1875 C -0.535156 4.007812 -0.914062 3.726562 -1.1875 3.34375 C -1.46875 2.96875 -1.554688 2.492188 -1.453125 1.921875 C -1.472656 1.941406 -1.492188 2.023438 -1.515625 2.171875 C -1.546875 2.328125 -1.566406 2.398438 -1.578125 2.390625 C -1.671875 2.335938 -1.691406 2.207031 -1.640625 2 C -1.585938 1.789062 -1.550781 1.648438 -1.53125 1.578125 C -1.375 1.097656 -1.109375 0.664062 -0.734375 0.28125 C -0.367188 -0.09375 0.00390625 -0.425781 0.390625 -0.71875 C 0.609375 -0.894531 0.828125 -1.066406 1.046875 -1.234375 C 1.265625 -1.398438 1.488281 -1.550781 1.71875 -1.6875 C 1.882812 -1.789062 2.113281 -1.921875 2.40625 -2.078125 C 2.707031 -2.234375 2.863281 -2.394531 2.875 -2.5625 C 2.914062 -2.757812 2.878906 -3.015625 2.765625 -3.328125 C 2.648438 -3.648438 2.566406 -3.90625 2.515625 -4.09375 C 2.460938 -4.34375 2.398438 -4.59375 2.328125 -4.84375 C 2.265625 -5.101562 2.210938 -5.363281 2.171875 -5.625 C 2.160156 -5.800781 2.164062 -5.945312 2.1875 -6.0625 C 2.21875 -6.1875 2.210938 -6.328125 2.171875 -6.484375 C 2.109375 -6.691406 2.050781 -6.894531 2 -7.09375 C 1.945312 -7.289062 1.910156 -7.503906 1.890625 -7.734375 C 1.878906 -7.953125 1.878906 -8.171875 1.890625 -8.390625 C 1.910156 -8.609375 1.953125 -8.820312 2.015625 -9.03125 C 2.066406 -9.1875 2.179688 -9.375 2.359375 -9.59375 C 2.535156 -9.820312 2.738281 -10.023438 2.96875 -10.203125 C 3.195312 -10.390625 3.429688 -10.507812 3.671875 -10.5625 C 3.921875 -10.625 4.132812 -10.578125 4.3125 -10.421875 C 4.3125 -10.492188 4.363281 -10.445312 4.46875 -10.28125 C 4.582031 -10.113281 4.648438 -9.988281 4.671875 -9.90625 C 4.671875 -9.875 4.660156 -9.769531 4.640625 -9.59375 C 4.617188 -9.425781 4.585938 -9.265625 4.546875 -9.109375 C 4.503906 -8.953125 4.457031 -8.875 4.40625 -8.875 C 4.40625 -8.875 4.414062 -8.921875 4.4375 -9.015625 C 4.457031 -9.109375 4.472656 -9.195312 4.484375 -9.28125 C 4.421875 -9.113281 4.347656 -8.9375 4.265625 -8.75 C 4.191406 -8.570312 4.144531 -8.390625 4.125 -8.203125 C 4.101562 -8.023438 4.101562 -7.84375 4.125 -7.65625 C 4.15625 -7.476562 4.179688 -7.3125 4.203125 -7.15625 C 4.203125 -7.226562 4.21875 -7.269531 4.25 -7.28125 C 4.25 -7.28125 4.269531 -7.15625 4.3125 -6.90625 C 4.363281 -6.65625 4.429688 -6.335938 4.515625 -5.953125 C 4.597656 -5.578125 4.675781 -5.207031 4.75 -4.84375 C 4.65625 -5.195312 4.554688 -5.5625 4.453125 -5.9375 C 4.359375 -6.320312 4.285156 -6.632812 4.234375 -6.875 C 4.335938 -6.300781 4.453125 -5.734375 4.578125 -5.171875 C 4.703125 -4.609375 4.828125 -4.050781 4.953125 -3.5 C 4.984375 -3.53125 4.992188 -3.597656 4.984375 -3.703125 C 5.015625 -3.597656 5.03125 -3.546875 5.03125 -3.546875 C 5.601562 -3.847656 6.15625 -4.140625 6.6875 -4.421875 C 7.226562 -4.703125 7.765625 -5.007812 8.296875 -5.34375 C 8.535156 -5.5 8.773438 -5.679688 9.015625 -5.890625 C 9.265625 -6.109375 9.507812 -6.28125 9.75 -6.40625 C 10.039062 -6.53125 10.222656 -6.425781 10.296875 -6.09375 Z M -0.1875 2.828125 C 0.0078125 2.898438 0.207031 2.921875 0.40625 2.890625 C 0.601562 2.867188 0.785156 2.835938 0.953125 2.796875 L 1.6875 2.515625 C 1.707031 2.535156 1.675781 2.570312 1.59375 2.625 C 1.519531 2.675781 1.484375 2.707031 1.484375 2.71875 C 1.773438 2.550781 2.039062 2.316406 2.28125 2.015625 L 2.15625 2.125 C 2.21875 2.050781 2.304688 1.910156 2.421875 1.703125 C 2.535156 1.503906 2.640625 1.304688 2.734375 1.109375 C 2.828125 0.921875 2.875 0.8125 2.875 0.78125 C 2.96875 0.46875 3.019531 0.15625 3.03125 -0.15625 C 3.050781 -0.46875 3.050781 -0.78125 3.03125 -1.09375 C 3.019531 -1.070312 2.992188 -1.050781 2.953125 -1.03125 C 2.921875 -1.019531 2.890625 -1.003906 2.859375 -0.984375 L 3.03125 -1.140625 L 2.71875 -0.953125 C 2.8125 -0.992188 2.773438 -0.945312 2.609375 -0.8125 C 2.441406 -0.6875 2.34375 -0.609375 2.3125 -0.578125 L 1.53125 -0.046875 C 1.269531 0.117188 1.003906 0.304688 0.734375 0.515625 C 0.472656 0.722656 0.242188 0.957031 0.046875 1.21875 C -0.015625 1.320312 -0.109375 1.488281 -0.234375 1.71875 C -0.367188 1.957031 -0.445312 2.179688 -0.46875 2.390625 C -0.5 2.609375 -0.40625 2.753906 -0.1875 2.828125 Z M 3.09375 3.578125 C 3.4375 3.421875 3.707031 3.226562 3.90625 3 C 4.101562 2.78125 4.269531 2.53125 4.40625 2.25 C 4.03125 2.789062 3.535156 3.210938 2.921875 3.515625 C 2.316406 3.816406 1.695312 3.984375 1.0625 4.015625 C 1.769531 3.984375 2.445312 3.835938 3.09375 3.578125 Z M 4.984375 -3.78125 C 4.960938 -3.875 4.9375 -3.984375 4.90625 -4.109375 C 4.882812 -4.242188 4.859375 -4.378906 4.828125 -4.515625 C 4.890625 -4.253906 4.941406 -4.007812 4.984375 -3.78125 Z M 5.3125 -1.09375 C 5.3125 -1.101562 5.304688 -1.117188 5.296875 -1.140625 C 5.296875 -1.171875 5.296875 -1.195312 5.296875 -1.21875 C 5.296875 -1.144531 5.300781 -1.101562 5.3125 -1.09375 Z M 5.3125 -1.09375 "/></g></g></g><g fill="#000000" fill-opacity="1"><g transform="translate(111.135872, 27.818389)"><g><path d="M 12.859375 -6.375 C 12.898438 -6.375 12.960938 -6.351562 13.046875 -6.3125 C 13.128906 -6.269531 13.128906 -6.238281 13.046875 -6.21875 C 13.078125 -6.238281 13.039062 -6.128906 12.9375 -5.890625 C 12.832031 -5.648438 12.710938 -5.398438 12.578125 -5.140625 C 12.453125 -4.878906 12.375 -4.722656 12.34375 -4.671875 C 12.15625 -4.359375 11.957031 -4.046875 11.75 -3.734375 C 11.539062 -3.421875 11.332031 -3.117188 11.125 -2.828125 C 10.75 -2.253906 10.375 -1.660156 10 -1.046875 C 9.625 -0.429688 9.1875 0.113281 8.6875 0.59375 C 8.519531 0.769531 8.351562 0.898438 8.1875 0.984375 C 8.019531 1.066406 7.816406 1.101562 7.578125 1.09375 C 7.285156 1.070312 7.03125 1 6.8125 0.875 C 6.59375 0.757812 6.390625 0.609375 6.203125 0.421875 C 6.179688 0.378906 6.101562 0.300781 5.96875 0.1875 C 5.84375 0.0820312 5.726562 -0.03125 5.625 -0.15625 C 5.519531 -0.289062 5.476562 -0.382812 5.5 -0.4375 L 5.65625 -0.203125 C 5.582031 -0.304688 5.519531 -0.445312 5.46875 -0.625 L 5.46875 -0.515625 C 5.457031 -0.503906 5.425781 -0.570312 5.375 -0.71875 C 5.320312 -0.863281 5.273438 -1.015625 5.234375 -1.171875 C 5.203125 -1.335938 5.1875 -1.441406 5.1875 -1.484375 C 5.164062 -1.671875 5.171875 -1.863281 5.203125 -2.0625 C 5.242188 -2.257812 5.28125 -2.453125 5.3125 -2.640625 C 5.40625 -2.953125 5.5 -3.265625 5.59375 -3.578125 C 5.6875 -3.890625 5.769531 -4.203125 5.84375 -4.515625 C 5.925781 -4.835938 6.046875 -5.15625 6.203125 -5.46875 C 6.359375 -5.78125 6.515625 -6.09375 6.671875 -6.40625 C 6.679688 -6.4375 6.734375 -6.539062 6.828125 -6.71875 C 6.929688 -6.90625 7.03125 -7.082031 7.125 -7.25 C 7.21875 -7.425781 7.28125 -7.515625 7.3125 -7.515625 C 7.3125 -7.503906 7.289062 -7.457031 7.25 -7.375 C 7.21875 -7.300781 7.210938 -7.253906 7.234375 -7.234375 L 7.625 -8.125 L 7.546875 -8.046875 L 8.296875 -9.859375 C 7.816406 -9.472656 7.378906 -9.03125 6.984375 -8.53125 C 6.597656 -8.03125 6.21875 -7.546875 5.84375 -7.078125 C 5.664062 -6.859375 5.484375 -6.625 5.296875 -6.375 C 5.117188 -6.132812 4.914062 -5.921875 4.6875 -5.734375 C 4.625 -5.660156 4.570312 -5.628906 4.53125 -5.640625 C 4.488281 -5.648438 4.429688 -5.613281 4.359375 -5.53125 C 4.304688 -5.457031 4.257812 -5.378906 4.21875 -5.296875 C 4.175781 -5.222656 4.132812 -5.144531 4.09375 -5.0625 C 3.800781 -4.570312 3.476562 -4.097656 3.125 -3.640625 C 2.769531 -3.179688 2.4375 -2.710938 2.125 -2.234375 L 1.65625 -1.40625 C 1.644531 -1.332031 1.628906 -1.273438 1.609375 -1.234375 C 1.585938 -1.191406 1.550781 -1.132812 1.5 -1.0625 C 1.332031 -0.882812 1.125 -0.816406 0.875 -0.859375 C 0.625 -0.910156 0.425781 -1.019531 0.28125 -1.1875 C 0.164062 -1.332031 0.09375 -1.484375 0.0625 -1.640625 C 0.0390625 -1.804688 0.03125 -1.96875 0.03125 -2.125 C -0.0195312 -2.695312 0 -3.28125 0.09375 -3.875 C 0.1875 -4.46875 0.285156 -5.046875 0.390625 -5.609375 C 0.609375 -6.828125 0.867188 -8.039062 1.171875 -9.25 C 1.484375 -10.46875 1.835938 -11.664062 2.234375 -12.84375 C 2.578125 -13.894531 3 -14.90625 3.5 -15.875 C 4 -16.84375 4.5 -17.820312 5 -18.8125 C 5 -18.820312 5.023438 -18.921875 5.078125 -19.109375 C 5.128906 -19.304688 5.191406 -19.421875 5.265625 -19.453125 C 5.242188 -19.429688 5.207031 -19.34375 5.15625 -19.1875 C 5.101562 -19.03125 5.078125 -18.953125 5.078125 -18.953125 L 5.390625 -19.5625 C 5.390625 -19.5625 5.382812 -19.5625 5.375 -19.5625 C 5.375 -19.5625 5.363281 -19.566406 5.34375 -19.578125 C 5.34375 -19.828125 5.445312 -20.101562 5.65625 -20.40625 C 5.875 -20.707031 6.046875 -20.953125 6.171875 -21.140625 C 6.359375 -21.429688 6.546875 -21.722656 6.734375 -22.015625 C 6.929688 -22.316406 7.132812 -22.601562 7.34375 -22.875 C 7.707031 -23.375 8.078125 -23.882812 8.453125 -24.40625 C 8.835938 -24.925781 9.269531 -25.375 9.75 -25.75 C 10.007812 -25.945312 10.296875 -26.125 10.609375 -26.28125 C 10.921875 -26.4375 11.238281 -26.492188 11.5625 -26.453125 C 11.925781 -26.453125 12.226562 -26.332031 12.46875 -26.09375 C 12.507812 -26.0625 12.570312 -25.96875 12.65625 -25.8125 C 12.738281 -25.664062 12.8125 -25.515625 12.875 -25.359375 C 12.9375 -25.210938 12.941406 -25.117188 12.890625 -25.078125 C 12.890625 -25.078125 12.867188 -25.140625 12.828125 -25.265625 C 12.785156 -25.398438 12.753906 -25.46875 12.734375 -25.46875 C 12.816406 -25.257812 12.867188 -25.039062 12.890625 -24.8125 C 12.910156 -24.59375 12.910156 -24.378906 12.890625 -24.171875 C 12.921875 -24.222656 12.9375 -24.25 12.9375 -24.25 C 12.976562 -24.25 12.972656 -24.128906 12.921875 -23.890625 C 12.878906 -23.648438 12.820312 -23.363281 12.75 -23.03125 C 12.6875 -22.707031 12.625 -22.410156 12.5625 -22.140625 C 12.5 -21.867188 12.460938 -21.707031 12.453125 -21.65625 C 12.328125 -21.207031 12.171875 -20.757812 11.984375 -20.3125 C 11.804688 -19.875 11.625 -19.441406 11.4375 -19.015625 C 11.007812 -18.109375 10.519531 -17.1875 9.96875 -16.25 C 9.425781 -15.320312 8.828125 -14.46875 8.171875 -13.6875 C 8.046875 -13.550781 7.90625 -13.425781 7.75 -13.3125 C 7.59375 -13.207031 7.457031 -13.09375 7.34375 -12.96875 C 7.21875 -12.832031 7.101562 -12.675781 7 -12.5 C 6.894531 -12.332031 6.773438 -12.171875 6.640625 -12.015625 C 6.304688 -11.628906 5.957031 -11.253906 5.59375 -10.890625 C 5.238281 -10.523438 4.867188 -10.171875 4.484375 -9.828125 C 4.265625 -9.617188 4.101562 -9.4375 4 -9.28125 C 3.894531 -9.125 3.789062 -8.898438 3.6875 -8.609375 C 3.59375 -8.335938 3.503906 -8.066406 3.421875 -7.796875 C 3.335938 -7.523438 3.253906 -7.257812 3.171875 -7 C 2.992188 -6.476562 2.828125 -5.957031 2.671875 -5.4375 C 2.515625 -4.925781 2.367188 -4.398438 2.234375 -3.859375 C 2.453125 -4.210938 2.675781 -4.546875 2.90625 -4.859375 C 3.144531 -5.179688 3.382812 -5.507812 3.625 -5.84375 C 3.457031 -5.644531 3.320312 -5.476562 3.21875 -5.34375 C 3.113281 -5.21875 3.0625 -5.15625 3.0625 -5.15625 C 3.039062 -5.15625 3.140625 -5.289062 3.359375 -5.5625 C 3.578125 -5.84375 3.851562 -6.1875 4.1875 -6.59375 C 4.519531 -7 4.859375 -7.414062 5.203125 -7.84375 C 5.554688 -8.269531 5.863281 -8.640625 6.125 -8.953125 C 6.382812 -9.273438 6.546875 -9.472656 6.609375 -9.546875 C 6.804688 -9.753906 7.035156 -9.992188 7.296875 -10.265625 C 7.566406 -10.546875 7.851562 -10.785156 8.15625 -10.984375 C 8.457031 -11.179688 8.765625 -11.28125 9.078125 -11.28125 C 9.390625 -11.28125 9.679688 -11.109375 9.953125 -10.765625 C 10.285156 -10.367188 10.378906 -9.941406 10.234375 -9.484375 C 10.085938 -9.035156 9.921875 -8.613281 9.734375 -8.21875 C 9.398438 -7.507812 9.046875 -6.753906 8.671875 -5.953125 C 8.304688 -5.160156 8.019531 -4.40625 7.8125 -3.6875 C 7.820312 -3.695312 7.851562 -3.765625 7.90625 -3.890625 C 7.957031 -4.023438 8.003906 -4.078125 8.046875 -4.046875 C 8.097656 -3.992188 8.09375 -3.847656 8.03125 -3.609375 C 7.96875 -3.378906 7.894531 -3.144531 7.8125 -2.90625 C 7.738281 -2.675781 7.691406 -2.519531 7.671875 -2.4375 C 7.671875 -2.382812 7.65625 -2.269531 7.625 -2.09375 C 7.59375 -1.925781 7.578125 -1.765625 7.578125 -1.609375 C 7.578125 -1.453125 7.609375 -1.347656 7.671875 -1.296875 C 7.796875 -1.222656 7.929688 -1.226562 8.078125 -1.3125 C 8.222656 -1.40625 8.367188 -1.519531 8.515625 -1.65625 C 8.660156 -1.800781 8.769531 -1.90625 8.84375 -1.96875 C 9.3125 -2.414062 9.757812 -2.890625 10.1875 -3.390625 C 10.625 -3.898438 11.054688 -4.394531 11.484375 -4.875 C 11.640625 -5.0625 11.800781 -5.257812 11.96875 -5.46875 C 12.132812 -5.675781 12.300781 -5.867188 12.46875 -6.046875 C 12.507812 -6.078125 12.566406 -6.140625 12.640625 -6.234375 C 12.722656 -6.328125 12.796875 -6.375 12.859375 -6.375 Z M 10.609375 -23.84375 C 10.609375 -23.820312 10.601562 -23.8125 10.59375 -23.8125 C 10.582031 -23.8125 10.578125 -23.8125 10.578125 -23.8125 C 10.109375 -23.070312 9.664062 -22.304688 9.25 -21.515625 C 8.84375 -20.722656 8.441406 -19.941406 8.046875 -19.171875 C 7.679688 -18.460938 7.304688 -17.738281 6.921875 -17 C 6.546875 -16.269531 6.203125 -15.550781 5.890625 -14.84375 C 5.921875 -14.90625 5.957031 -14.960938 6 -15.015625 C 6.039062 -15.066406 6.070312 -15.101562 6.09375 -15.125 C 6.09375 -15.125 6.046875 -14.992188 5.953125 -14.734375 C 5.859375 -14.472656 5.765625 -14.203125 5.671875 -13.921875 C 5.578125 -13.648438 5.507812 -13.488281 5.46875 -13.4375 L 4.6875 -11.390625 C 5.625 -12.367188 6.492188 -13.40625 7.296875 -14.5 C 8.097656 -15.601562 8.832031 -16.734375 9.5 -17.890625 C 9.238281 -17.460938 8.972656 -17.039062 8.703125 -16.625 C 8.429688 -16.207031 8.148438 -15.800781 7.859375 -15.40625 L 6.828125 -13.953125 L 6.359375 -13.484375 L 6.5625 -13.71875 C 6.695312 -13.875 6.820312 -14.03125 6.9375 -14.1875 C 7.050781 -14.34375 7.164062 -14.5 7.28125 -14.65625 C 7.507812 -14.96875 7.734375 -15.28125 7.953125 -15.59375 C 8.171875 -15.914062 8.378906 -16.242188 8.578125 -16.578125 C 9.015625 -17.242188 9.421875 -17.921875 9.796875 -18.609375 C 10.179688 -19.304688 10.53125 -20.019531 10.84375 -20.75 C 11 -21.132812 11.148438 -21.519531 11.296875 -21.90625 C 11.441406 -22.289062 11.566406 -22.679688 11.671875 -23.078125 C 11.703125 -23.222656 11.75 -23.414062 11.8125 -23.65625 C 11.875 -23.894531 11.910156 -24.128906 11.921875 -24.359375 C 11.929688 -24.597656 11.875 -24.769531 11.75 -24.875 C 11.625 -24.976562 11.492188 -24.96875 11.359375 -24.84375 C 11.222656 -24.726562 11.085938 -24.570312 10.953125 -24.375 C 10.828125 -24.1875 10.726562 -24.039062 10.65625 -23.9375 C 10.675781 -23.957031 10.671875 -23.929688 10.640625 -23.859375 L 10.640625 -23.890625 C 10.640625 -23.867188 10.632812 -23.859375 10.625 -23.859375 C 10.613281 -23.859375 10.609375 -23.859375 10.609375 -23.859375 Z M 4.09375 -11.125 L 4.078125 -11.046875 C 4.054688 -10.984375 4.03125 -10.875 4 -10.71875 C 3.976562 -10.570312 3.976562 -10.5 4 -10.5 C 3.976562 -10.5 4.015625 -10.640625 4.109375 -10.921875 C 4.203125 -11.210938 4.316406 -11.539062 4.453125 -11.90625 C 4.597656 -12.28125 4.726562 -12.625 4.84375 -12.9375 C 4.96875 -13.25 5.039062 -13.441406 5.0625 -13.515625 C 5.164062 -13.785156 5.285156 -14.046875 5.421875 -14.296875 C 5.554688 -14.554688 5.671875 -14.820312 5.765625 -15.09375 C 5.859375 -15.382812 5.96875 -15.664062 6.09375 -15.9375 C 6.226562 -16.207031 6.367188 -16.476562 6.515625 -16.75 C 6.578125 -16.894531 6.738281 -17.222656 7 -17.734375 C 7.257812 -18.242188 7.550781 -18.828125 7.875 -19.484375 C 8.207031 -20.140625 8.53125 -20.785156 8.84375 -21.421875 C 9.15625 -22.066406 9.40625 -22.601562 9.59375 -23.03125 C 9.78125 -23.46875 9.859375 -23.691406 9.828125 -23.703125 C 9.804688 -23.703125 9.707031 -23.539062 9.53125 -23.21875 C 9.363281 -22.90625 9.148438 -22.503906 8.890625 -22.015625 C 8.628906 -21.535156 8.367188 -21.046875 8.109375 -20.546875 C 7.859375 -20.046875 7.632812 -19.597656 7.4375 -19.203125 C 7.238281 -18.816406 7.113281 -18.570312 7.0625 -18.46875 C 6.800781 -17.925781 6.519531 -17.390625 6.21875 -16.859375 C 5.914062 -16.328125 5.660156 -15.773438 5.453125 -15.203125 C 5.222656 -14.523438 4.96875 -13.851562 4.6875 -13.1875 C 4.414062 -12.519531 4.21875 -11.832031 4.09375 -11.125 Z M 5.890625 -12.9375 C 5.953125 -13.039062 6.007812 -13.117188 6.0625 -13.171875 C 6.03125 -13.140625 6 -13.101562 5.96875 -13.0625 C 5.945312 -13.019531 5.921875 -12.976562 5.890625 -12.9375 Z M 10.609375 -23.84375 L 10.640625 -23.859375 L 10.609375 -23.859375 Z M 4.09375 -11.09375 C 4.09375 -11.082031 4.085938 -11.078125 4.078125 -11.078125 C 4.078125 -11.078125 4.078125 -11.066406 4.078125 -11.046875 C 4.078125 -11.046875 4.078125 -11.050781 4.078125 -11.0625 C 4.085938 -11.070312 4.09375 -11.082031 4.09375 -11.09375 Z M 4.09375 -11.09375 "/></g></g></g></svg>